<svg version="1.1" xmlns="http://www.w3.org/2000/svg" xmlns:xlink="http://www.w3.org/1999/xlink" width="1436" height="884"><defs/><g><g transform="translate(-142,-142) scale(1,1)"><rect fill="#C0C0C0" stroke="none" x="159" y="159" width="566.4" height="15" opacity="0.2"/></g><g transform="translate(-142,-142) scale(1,1)"><rect fill="#C0C0C0" stroke="none" x="159" y="173" width="1416" height="850" opacity="0.2"/></g><g transform="translate(-142,-142) scale(1,1)"><rect fill="#ffffff" stroke="none" x="152" y="167" width="1416" height="849"/></g><g transform="translate(-142,-142) scale(1,1)"><path fill="none" stroke="#000000" d="M 152 167 L 1568 167 L 1568 1016 L 152 1016 L 152 167 Z Z" stroke-miterlimit="10"/></g><g transform="translate(-142,-142) scale(1,1)"><rect fill="#ffffff" stroke="none" x="152" y="152" width="566.4" height="15"/></g><g transform="translate(-142,-142) scale(1,1)"><path fill="none" stroke="#000000" d="M 152 152 L 718.4 152 L 718.4 167 L 152 167 L 152 152 Z Z" stroke-miterlimit="10"/></g><g transform="translate(-142,-142) scale(1,1)"><rect fill="#ffffff" stroke="none" x="152" y="166" width="1416" height="850"/></g><g transform="translate(-142,-142) scale(1,1)"><path fill="none" stroke="#000000" d="M 152 166 L 1568 166 L 1568 1016 L 152 1016 L 152 166 Z Z" stroke-miterlimit="10"/></g><g transform="translate(-142,-142) scale(1,1)"><g><path fill="none" stroke="none"/><text fill="#000000" stroke="none" font-family="Arial" font-size="13px" font-style="normal" font-weight="bold" text-decoration="none" x="817.004150390625" y="184.5">elgama_game</text></g></g><g transform="translate(-142,-142) scale(1,1)"><rect fill="#C0C0C0" stroke="none" x="639" y="191" width="44.799999999999955" height="15" opacity="0.2"/></g><g transform="translate(-142,-142) scale(1,1)"><rect fill="#C0C0C0" stroke="none" x="639" y="205" width="112" height="186" opacity="0.2"/></g><g transform="translate(-142,-142) scale(1,1)"><rect fill="#ffffff" stroke="none" x="632" y="199" width="112" height="185"/></g><g transform="translate(-142,-142) scale(1,1)"><path fill="none" stroke="#000000" d="M 632 199 L 744 199 L 744 384 L 632 384 L 632 199 Z Z" stroke-miterlimit="10"/></g><g transform="translate(-142,-142) scale(1,1)"><rect fill="#ffffff" stroke="none" x="632" y="184" width="44.799999999999955" height="15"/></g><g transform="translate(-142,-142) scale(1,1)"><path fill="none" stroke="#000000" d="M 632 184 L 676.8 184 L 676.8 199 L 632 199 L 632 184 Z Z" stroke-miterlimit="10"/></g><g transform="translate(-142,-142) scale(1,1)"><rect fill="#ffffff" stroke="none" x="632" y="198" width="112" height="186"/></g><g transform="translate(-142,-142) scale(1,1)"><path fill="none" stroke="#000000" d="M 632 198 L 744 198 L 744 384 L 632 384 L 632 198 Z Z" stroke-miterlimit="10"/></g><g transform="translate(-142,-142) scale(1,1)"><g><path fill="none" stroke="none"/><text fill="#000000" stroke="none" font-family="Arial" font-size="13px" font-style="normal" font-weight="bold" text-decoration="none" x="667.408203125" y="216.5">npc_ai</text></g></g><g transform="translate(-142,-142) scale(1,1)"><rect fill="#C0C0C0" stroke="none" x="487" y="591" width="355.20000000000005" height="15" opacity="0.2"/></g><g transform="translate(-142,-142) scale(1,1)"><rect fill="#C0C0C0" stroke="none" x="487" y="605" width="888" height="378" opacity="0.2"/></g><g transform="translate(-142,-142) scale(1,1)"><rect fill="#ffffff" stroke="none" x="480" y="599" width="888" height="377"/></g><g transform="translate(-142,-142) scale(1,1)"><path fill="none" stroke="#000000" d="M 480 599 L 1368 599 L 1368 976 L 480 976 L 480 599 Z Z" stroke-miterlimit="10"/></g><g transform="translate(-142,-142) scale(1,1)"><rect fill="#ffffff" stroke="none" x="480" y="584" width="355.20000000000005" height="15"/></g><g transform="translate(-142,-142) scale(1,1)"><path fill="none" stroke="#000000" d="M 480 584 L 835.2 584 L 835.2 599 L 480 599 L 480 584 Z Z" stroke-miterlimit="10"/></g><g transform="translate(-142,-142) scale(1,1)"><rect fill="#ffffff" stroke="none" x="480" y="598" width="888" height="378"/></g><g transform="translate(-142,-142) scale(1,1)"><path fill="none" stroke="#000000" d="M 480 598 L 1368 598 L 1368 976 L 480 976 L 480 598 Z Z" stroke-miterlimit="10"/></g><g transform="translate(-142,-142) scale(1,1)"><g><path fill="none" stroke="none"/><text fill="#000000" stroke="none" font-family="Arial" font-size="13px" font-style="normal" font-weight="bold" text-decoration="none" x="893.6455078125" y="616">race_map</text></g></g><g transform="translate(-142,-142) scale(1,1)"><rect fill="#C0C0C0" stroke="none" x="647" y="431" width="93.5380859375" height="54" opacity="0.2"/></g><g transform="translate(-142,-142) scale(1,1)"><rect fill="#ffffff" stroke="none" x="640" y="424" width="93.5380859375" height="54"/></g><g transform="translate(-142,-142) scale(1,1)"><path fill="none" stroke="#000000" d="M 640 424 L 733.5380859375 424 L 733.5380859375 478 L 640 478 L 640 424 Z Z" stroke-miterlimit="10"/></g><g transform="translate(-142,-142) scale(1,1)"><path fill="none" stroke="#000000" d="M 640 449 L 733.5380859375 449" stroke-miterlimit="10"/></g><g transform="translate(-142,-142) scale(1,1)"><g><path fill="none" stroke="none"/><text fill="#000000" stroke="none" font-family="Arial" font-size="13px" font-style="normal" font-weight="bold" text-decoration="none" x="644.5" y="441.5">RaceManager</text></g></g><g transform="translate(-142,-142) scale(1,1)"><rect fill="#C0C0C0" stroke="none" x="783" y="207" width="236.79999999999995" height="15" opacity="0.2"/></g><g transform="translate(-142,-142) scale(1,1)"><rect fill="#C0C0C0" stroke="none" x="783" y="221" width="592" height="346" opacity="0.2"/></g><g transform="translate(-142,-142) scale(1,1)"><rect fill="#ffffff" stroke="none" x="776" y="215" width="592" height="345"/></g><g transform="translate(-142,-142) scale(1,1)"><path fill="none" stroke="#000000" d="M 776 215 L 1368 215 L 1368 560 L 776 560 L 776 215 Z Z" stroke-miterlimit="10"/></g><g transform="translate(-142,-142) scale(1,1)"><rect fill="#ffffff" stroke="none" x="776" y="200" width="236.79999999999995" height="15"/></g><g transform="translate(-142,-142) scale(1,1)"><path fill="none" stroke="#000000" d="M 776 200 L 1012.8 200 L 1012.8 215 L 776 215 L 776 200 Z Z" stroke-miterlimit="10"/></g><g transform="translate(-142,-142) scale(1,1)"><rect fill="#ffffff" stroke="none" x="776" y="214" width="592" height="346"/></g><g transform="translate(-142,-142) scale(1,1)"><path fill="none" stroke="#000000" d="M 776 214 L 1368 214 L 1368 560 L 776 560 L 776 214 Z Z" stroke-miterlimit="10"/></g><g transform="translate(-142,-142) scale(1,1)"><g><path fill="none" stroke="none"/><text fill="#000000" stroke="none" font-family="Arial" font-size="13px" font-style="normal" font-weight="bold" text-decoration="none" x="1047.437744140625" y="232.5">sailboat</text></g></g><g transform="translate(-142,-142) scale(1,1)"><rect fill="#C0C0C0" stroke="none" x="879" y="399" width="272.04150390625" height="107" opacity="0.2"/></g><g transform="translate(-142,-142) scale(1,1)"><rect fill="#ffffff" stroke="none" x="872" y="392" width="272.04150390625" height="107"/></g><g transform="translate(-142,-142) scale(1,1)"><path fill="none" stroke="#5e5e5e" d="M 872 392 L 1144.04150390625 392 L 1144.04150390625 499 L 872 499 L 872 392 Z Z" stroke-miterlimit="10"/></g><g transform="translate(-142,-142) scale(1,1)"><path fill="none" stroke="#5e5e5e" d="M 872 417 L 1144.04150390625 417" stroke-miterlimit="10"/></g><g transform="translate(-142,-142) scale(1,1)"><g><path fill="none" stroke="none"/><text fill="#5e5e5e" stroke="none" font-family="Arial" font-size="13px" font-style="italic" font-weight="bold" text-decoration="none" x="982.738037109375" y="409.5">Sailboat</text></g></g><g transform="translate(-142,-142) scale(1,1)"><g><path fill="none" stroke="none"/><text fill="#5e5e5e" stroke="none" font-family="Arial" font-size="13px" font-style="normal" font-weight="normal" text-decoration="none" x="877" y="432.5">+Sailboat(map, startPos, sailSize, crewSize)</text></g></g><g transform="translate(-142,-142) scale(1,1)"><g><path fill="none" stroke="none"/><text fill="#5e5e5e" stroke="none" font-family="Arial" font-size="13px" font-style="normal" font-weight="normal" text-decoration="none" x="877" y="447.5">+subscribe(boatUI)</text></g></g><g transform="translate(-142,-142) scale(1,1)"><g><path fill="none" stroke="none"/><text fill="#5e5e5e" stroke="none" font-family="Arial" font-size="13px" font-style="normal" font-weight="normal" text-decoration="none" x="877" y="462.5">+moveForward(): newPos</text></g></g><g transform="translate(-142,-142) scale(1,1)"><g><path fill="none" stroke="none"/><text fill="#5e5e5e" stroke="none" font-family="Arial" font-size="13px" font-style="italic" font-weight="normal" text-decoration="none" x="877" y="477.5">~getPolar(angle, windForce): maxSpeed</text></g></g><g transform="translate(-142,-142) scale(1,1)"><g><path fill="none" stroke="none"/><text fill="#5e5e5e" stroke="none" font-family="Arial" font-size="13px" font-style="normal" font-weight="normal" text-decoration="none" x="877" y="492.5">+setDirection(angle)</text></g></g><g transform="translate(-142,-142) scale(1,1)"><rect fill="#C0C0C0" stroke="none" x="1231" y="463" width="114.498046875" height="44" opacity="0.2"/></g><g transform="translate(-142,-142) scale(1,1)"><rect fill="#ffffff" stroke="none" x="1224" y="456" width="114.498046875" height="44"/></g><g transform="translate(-142,-142) scale(1,1)"><path fill="none" stroke="#000000" d="M 1224 456 L 1338.498046875 456 L 1338.498046875 500 L 1224 500 L 1224 456 Z Z" stroke-miterlimit="10"/></g><g transform="translate(-142,-142) scale(1,1)"><path fill="none" stroke="#000000" d="M 1224 481 L 1338.498046875 481" stroke-miterlimit="10"/></g><g transform="translate(-142,-142) scale(1,1)"><g><path fill="none" stroke="none"/><text fill="#000000" stroke="none" font-family="Arial" font-size="13px" font-style="normal" font-weight="bold" text-decoration="none" x="1241.160400390625" y="473.5">FigaroProfile</text></g></g><g transform="translate(-142,-142) scale(1,1)"><rect fill="#C0C0C0" stroke="none" x="1231" y="399" width="114.498046875" height="44" opacity="0.2"/></g><g transform="translate(-142,-142) scale(1,1)"><rect fill="#ffffff" stroke="none" x="1224" y="392" width="114.498046875" height="44"/></g><g transform="translate(-142,-142) scale(1,1)"><path fill="none" stroke="#000000" d="M 1224 392 L 1338.498046875 392 L 1338.498046875 436 L 1224 436 L 1224 392 Z Z" stroke-miterlimit="10"/></g><g transform="translate(-142,-142) scale(1,1)"><path fill="none" stroke="#000000" d="M 1224 417 L 1338.498046875 417" stroke-miterlimit="10"/></g><g transform="translate(-142,-142) scale(1,1)"><g><path fill="none" stroke="none"/><text fill="#000000" stroke="none" font-family="Arial" font-size="13px" font-style="normal" font-weight="bold" text-decoration="none" x="1228.5" y="409.5">Oceanis13Profile</text></g></g><g transform="translate(-142,-142) scale(1,1)"><rect fill="#C0C0C0" stroke="none" x="661" y="311" width="65.33544921875" height="54" opacity="0.2"/></g><g transform="translate(-142,-142) scale(1,1)"><rect fill="#ffffff" stroke="none" x="654" y="304" width="65.33544921875" height="54"/></g><g transform="translate(-142,-142) scale(1,1)"><path fill="none" stroke="#5e5e5e" d="M 654 304 L 719.33544921875 304 L 719.33544921875 358 L 654 358 L 654 304 Z Z" stroke-miterlimit="10"/></g><g transform="translate(-142,-142) scale(1,1)"><path fill="none" stroke="#5e5e5e" d="M 654 329 L 719.33544921875 329" stroke-miterlimit="10"/></g><g transform="translate(-142,-142) scale(1,1)"><g><path fill="none" stroke="none"/><text fill="#5e5e5e" stroke="none" font-family="Arial" font-size="13px" font-style="italic" font-weight="bold" text-decoration="none" x="658.5" y="321.5">BoatNPC</text></g></g><g transform="translate(-142,-142) scale(1,1)"><rect fill="#C0C0C0" stroke="none" x="659" y="231" width="68.24267578125" height="54" opacity="0.2"/></g><g transform="translate(-142,-142) scale(1,1)"><rect fill="#ffffff" stroke="none" x="652" y="224" width="68.24267578125" height="54"/></g><g transform="translate(-142,-142) scale(1,1)"><path fill="none" stroke="#000000" d="M 652 224 L 720.24267578125 224 L 720.24267578125 278 L 652 278 L 652 224 Z Z" stroke-miterlimit="10"/></g><g transform="translate(-142,-142) scale(1,1)"><path fill="none" stroke="#000000" d="M 652 249 L 720.24267578125 249" stroke-miterlimit="10"/></g><g transform="translate(-142,-142) scale(1,1)"><g><path fill="none" stroke="none"/><text fill="#000000" stroke="none" font-family="Arial" font-size="13px" font-style="normal" font-weight="bold" text-decoration="none" x="656.5" y="241.5">ElgamaAI</text></g></g><g transform="translate(-142,-142) scale(1,1)"><path fill="none" stroke="#000000" d="M 686 279 L 686 303" stroke-miterlimit="10"/></g><g transform="translate(-142,-142) scale(1,1)"><path fill="#FFFFFF" stroke="none" d="M 677.580964487968 282.6746502847517 L 686 303 L 694.419035512032 282.6746502847517"/></g><g transform="translate(-142,-142) scale(1,1)"><path fill="none" stroke="#000000" d="M 677.580964487968 282.6746502847517 L 686 303 L 694.419035512032 282.6746502847517 L 677.580964487968 282.6746502847517" stroke-miterlimit="10"/></g><g transform="translate(-142,-142) scale(1,1)"><path fill="none" stroke="#000000" d="M 871 396 L 720 343" stroke-miterlimit="10"/></g><g transform="translate(-142,-142) scale(1,1)"><path fill="#FFFFFF" stroke="none" d="M 730.9832821907088 342.39377205668245 L 720 343 L 728.1950212064003 350.33768542707105 L 740.7584460118719 350.2860770770146"/></g><g transform="translate(-142,-142) scale(1,1)"><path fill="none" stroke="#000000" d="M 730.9832821907088 342.39377205668245 L 720 343 L 728.1950212064003 350.33768542707105 L 740.7584460118719 350.2860770770146 L 730.9832821907088 342.39377205668245" stroke-miterlimit="10"/></g><g transform="translate(-142,-142) scale(1,1)"><path fill="none" stroke="#000000" d="M 860.0167178092912 396.60622794331755 L 871 396 L 862.8049787935997 388.66231457292895" stroke-miterlimit="10"/></g><g transform="translate(-142,-142) scale(1,1)"><path fill="none" stroke="#000000" d="M 735 450 L 871 448" stroke-miterlimit="10"/></g><g transform="translate(-142,-142) scale(1,1)"><path fill="none" stroke="#000000" d="M 860.9003218494456 452.3584975915118 L 871 448 L 860.7765258891982 443.9403722946846" stroke-miterlimit="10"/></g><g transform="translate(-142,-142) scale(1,1)"><path fill="#FFFFFF" stroke="none" d="M 745.0996781505544 445.6415024084882 L 735 450 L 745.2234741108018 454.0596277053154 L 756.9976214930467 449.6765055662787"/></g><g transform="translate(-142,-142) scale(1,1)"><path fill="none" stroke="#000000" d="M 745.0996781505544 445.6415024084882 L 735 450 L 745.2234741108018 454.0596277053154 L 756.9976214930467 449.6765055662787 L 745.0996781505544 445.6415024084882" stroke-miterlimit="10"/></g><g transform="translate(-142,-142) scale(1,1)"><g><path fill="none" stroke="none"/><text fill="#000000" stroke="none" font-family="Arial" font-size="13px" font-style="normal" font-weight="normal" text-decoration="none" x="793.13134765625" y="442.5">-playerBoat</text></g></g><g transform="translate(-142,-142) scale(1,1)"><path fill="none" stroke="#000000" d="M 686 359 L 686 423" stroke-miterlimit="10"/></g><g transform="translate(-142,-142) scale(1,1)"><path fill="#FFFFFF" stroke="none" d="M 681.790482243984 412.83732514237585 L 686 423 L 690.209517756016 412.83732514237585 L 686 401"/></g><g transform="translate(-142,-142) scale(1,1)"><path fill="none" stroke="#000000" d="M 681.790482243984 412.83732514237585 L 686 423 L 690.209517756016 412.83732514237585 L 686 401 L 681.790482243984 412.83732514237585" stroke-miterlimit="10"/></g><g transform="translate(-142,-142) scale(1,1)"><path fill="none" stroke="#000000" d="M 690.209517756016 369.16267485762415 L 686 359 L 681.790482243984 369.16267485762415" stroke-miterlimit="10"/></g><g transform="translate(-142,-142) scale(1,1)"><g><path fill="none" stroke="none"/><text fill="#000000" stroke="none" font-family="Arial" font-size="13px" font-style="normal" font-weight="normal" text-decoration="none" x="670.220458984375" y="384.5">*</text></g></g><g transform="translate(-142,-142) scale(1,1)"><path fill="none" stroke="#000000" d="M 690 679 L 687 479" stroke-miterlimit="10"/></g><g transform="translate(-142,-142) scale(1,1)"><path fill="#FFFFFF" stroke="none" d="M 691.3614672414125 489.098396085621 L 687 479 L 682.9433787110754 489.22466741357607 L 687.3299628812637 500.99752541757795"/></g><g transform="translate(-142,-142) scale(1,1)"><path fill="none" stroke="#000000" d="M 691.3614672414125 489.098396085621 L 687 479 L 682.9433787110754 489.22466741357607 L 687.3299628812637 500.99752541757795 L 691.3614672414125 489.098396085621" stroke-miterlimit="10"/></g><g transform="translate(-142,-142) scale(1,1)"><path fill="none" stroke="#000000" d="M 685.6385327585875 668.9016039143789 L 690 679 L 694.0566212889245 668.7753325864239" stroke-miterlimit="10"/></g><g transform="translate(-142,-142) scale(1,1)"><rect fill="#C0C0C0" stroke="none" x="931" y="631" width="80.5126953125" height="44" opacity="0.2"/></g><g transform="translate(-142,-142) scale(1,1)"><rect fill="#ffffff" stroke="none" x="924" y="624" width="80.5126953125" height="44"/></g><g transform="translate(-142,-142) scale(1,1)"><path fill="none" stroke="#000000" d="M 924 624 L 1004.5126953125 624 L 1004.5126953125 668 L 924 668 L 924 624 Z Z" stroke-miterlimit="10"/></g><g transform="translate(-142,-142) scale(1,1)"><path fill="none" stroke="#000000" d="M 924 649 L 1004.5126953125 649" stroke-miterlimit="10"/></g><g transform="translate(-142,-142) scale(1,1)"><g><path fill="none" stroke="none"/><text fill="#000000" stroke="none" font-family="Arial" font-size="13px" font-style="normal" font-weight="bold" text-decoration="none" x="934.63818359375" y="641.5">Shoreline</text></g></g><g transform="translate(-142,-142) scale(1,1)"><path fill="none" stroke="#000000" d="M 840 815 L 770 773" stroke-miterlimit="10"/></g><g transform="translate(-142,-142) scale(1,1)"><path fill="#FFFFFF" stroke="none" d="M 780.8802008145965 774.6190213815926 L 770 773 L 776.5486427788625 781.8382847744828 L 788.8648443656759 784.3189066194055"/></g><g transform="translate(-142,-142) scale(1,1)"><path fill="none" stroke="#000000" d="M 780.8802008145965 774.6190213815926 L 770 773 L 776.5486427788625 781.8382847744828 L 788.8648443656759 784.3189066194055 L 780.8802008145965 774.6190213815926" stroke-miterlimit="10"/></g><g transform="translate(-142,-142) scale(1,1)"><path fill="none" stroke="#000000" d="M 829.1197991854035 813.3809786184074 L 840 815 L 833.4513572211376 806.1617152255172" stroke-miterlimit="10"/></g><g transform="translate(-142,-142) scale(1,1)"><path fill="none" stroke="#000000" d="M 1087 835 L 1018 842" stroke-miterlimit="10" stroke-dasharray="3"/></g><g transform="translate(-142,-142) scale(1,1)"><path fill="#FFFFFF" stroke="none" d="M 1037.3718129271294 831.572494837388 L 1018 842 L 1039.0712998959912 848.3245806733098"/></g><g transform="translate(-142,-142) scale(1,1)"><path fill="none" stroke="#000000" d="M 1037.3718129271294 831.572494837388 L 1018 842 L 1039.0712998959912 848.3245806733098 L 1037.3718129271294 831.572494837388" stroke-miterlimit="10"/></g><g transform="translate(-142,-142) scale(1,1)"><path fill="none" stroke="#000000" d="M 1087 886 L 1018 873" stroke-miterlimit="10" stroke-dasharray="3"/></g><g transform="translate(-142,-142) scale(1,1)"><path fill="#FFFFFF" stroke="none" d="M 1039.5327068781992 868.4897301081252 L 1018 873 L 1036.415165476403 885.0366806253506"/></g><g transform="translate(-142,-142) scale(1,1)"><path fill="none" stroke="#000000" d="M 1039.5327068781992 868.4897301081252 L 1018 873 L 1036.415165476403 885.0366806253506 L 1039.5327068781992 868.4897301081252" stroke-miterlimit="10"/></g><g transform="translate(-142,-142) scale(1,1)"><rect fill="#C0C0C0" stroke="none" x="931" y="686" width="80.5126953125" height="44" opacity="0.2"/></g><g transform="translate(-142,-142) scale(1,1)"><rect fill="#ffffff" stroke="none" x="924" y="679" width="80.5126953125" height="44"/></g><g transform="translate(-142,-142) scale(1,1)"><path fill="none" stroke="#000000" d="M 924 679 L 1004.5126953125 679 L 1004.5126953125 723 L 924 723 L 924 679 Z Z" stroke-miterlimit="10"/></g><g transform="translate(-142,-142) scale(1,1)"><path fill="none" stroke="#000000" d="M 924 704 L 1004.5126953125 704" stroke-miterlimit="10"/></g><g transform="translate(-142,-142) scale(1,1)"><g><path fill="none" stroke="none"/><text fill="#000000" stroke="none" font-family="Arial" font-size="13px" font-style="normal" font-weight="bold" text-decoration="none" x="948.00634765625" y="696.5">Buoy</text></g></g><g transform="translate(-142,-142) scale(1,1)"><path fill="none" stroke="#000000" d="M 851 679 L 923 658" stroke-miterlimit="10"/></g><g transform="translate(-142,-142) scale(1,1)"><path fill="none" stroke="#000000" d="M 914.4224971083653 664.8866860059101 L 923 658 L 912.0651671649963 656.8044119143594" stroke-miterlimit="10"/></g><g transform="translate(-142,-142) scale(1,1)"><path fill="none" stroke="#000000" d="M 887 708 L 923 705" stroke-miterlimit="10"/></g><g transform="translate(-142,-142) scale(1,1)"><path fill="none" stroke="#000000" d="M 913.222010900214 710.0389412741632 L 923 705 L 912.5228480562116 701.6489871461347" stroke-miterlimit="10"/></g><g transform="translate(-142,-142) scale(1,1)"><g><path fill="none" stroke="none"/><text fill="#000000" stroke="none" font-family="Arial" font-size="13px" font-style="normal" font-weight="normal" text-decoration="none" x="899.220458984375" y="723.5">*</text></g></g><g transform="translate(-142,-142) scale(1,1)"><rect fill="#C0C0C0" stroke="none" x="1095" y="879" width="91.70361328125" height="44" opacity="0.2"/></g><g transform="translate(-142,-142) scale(1,1)"><rect fill="#ffffff" stroke="none" x="1088" y="872" width="91.70361328125" height="44"/></g><g transform="translate(-142,-142) scale(1,1)"><path fill="none" stroke="#000000" d="M 1088 872 L 1179.70361328125 872 L 1179.70361328125 916 L 1088 916 L 1088 872 Z Z" stroke-miterlimit="10"/></g><g transform="translate(-142,-142) scale(1,1)"><path fill="none" stroke="#000000" d="M 1088 897 L 1179.70361328125 897" stroke-miterlimit="10"/></g><g transform="translate(-142,-142) scale(1,1)"><g><path fill="none" stroke="none"/><text fill="#000000" stroke="none" font-family="Arial" font-size="13px" font-style="normal" font-weight="bold" text-decoration="none" x="1092.5" y="889.5">WeatherWind</text></g></g><g transform="translate(-142,-142) scale(1,1)"><rect fill="#C0C0C0" stroke="none" x="799" y="823" width="225.404296875" height="75" opacity="0.2"/></g><g transform="translate(-142,-142) scale(1,1)"><rect fill="#ffffff" stroke="none" x="792" y="816" width="225.404296875" height="75"/></g><g transform="translate(-142,-142) scale(1,1)"><path fill="none" stroke="#000000" d="M 792 816 L 1017.404296875 816 L 1017.404296875 891 L 792 891 L 792 816 Z Z" stroke-miterlimit="10"/></g><g transform="translate(-142,-142) scale(1,1)"><path fill="none" stroke="#000000" d="M 792 854 L 1017.404296875 854" stroke-miterlimit="10"/></g><g transform="translate(-142,-142) scale(1,1)"><g><path fill="none" stroke="none"/><text fill="#000000" stroke="none" font-family="Arial" font-size="13px" font-style="normal" font-weight="normal" text-decoration="none" x="872.541748046875" y="831.5">«interface»</text></g></g><g transform="translate(-142,-142) scale(1,1)"><g><path fill="none" stroke="none"/><text fill="#000000" stroke="none" font-family="Arial" font-size="13px" font-style="normal" font-weight="bold" text-decoration="none" x="888.87744140625" y="846.5">Wind</text></g></g><g transform="translate(-142,-142) scale(1,1)"><g><path fill="none" stroke="none"/><text fill="#000000" stroke="none" font-family="Arial" font-size="13px" font-style="normal" font-weight="normal" text-decoration="none" x="797" y="869.5">+getWindForce(position): force</text></g></g><g transform="translate(-142,-142) scale(1,1)"><g><path fill="none" stroke="none"/><text fill="#000000" stroke="none" font-family="Arial" font-size="13px" font-style="normal" font-weight="normal" text-decoration="none" x="797" y="884.5">+getWindDirection(position): direction</text></g></g><g transform="translate(-142,-142) scale(1,1)"><rect fill="#C0C0C0" stroke="none" x="1095" y="815" width="92.6494140625" height="44" opacity="0.2"/></g><g transform="translate(-142,-142) scale(1,1)"><rect fill="#ffffff" stroke="none" x="1088" y="808" width="92.6494140625" height="44"/></g><g transform="translate(-142,-142) scale(1,1)"><path fill="none" stroke="#000000" d="M 1088 808 L 1180.6494140625 808 L 1180.6494140625 852 L 1088 852 L 1088 808 Z Z" stroke-miterlimit="10"/></g><g transform="translate(-142,-142) scale(1,1)"><path fill="none" stroke="#000000" d="M 1088 833 L 1180.6494140625 833" stroke-miterlimit="10"/></g><g transform="translate(-142,-142) scale(1,1)"><g><path fill="none" stroke="none"/><text fill="#000000" stroke="none" font-family="Arial" font-size="13px" font-style="normal" font-weight="bold" text-decoration="none" x="1092.5" y="825.5">RandomWind</text></g></g><g transform="translate(-142,-142) scale(1,1)"><path fill="none" stroke="#000000" d="M 887 755 L 919 760" stroke-miterlimit="10"/></g><g transform="translate(-142,-142) scale(1,1)"><path fill="none" stroke="#000000" d="M 908.3093027269374 762.5901721594777 L 919 760 L 909.6090071641977 754.2720637610122" stroke-miterlimit="10"/></g><g transform="translate(-142,-142) scale(1,1)"><g><path fill="none" stroke="none"/><text fill="#000000" stroke="none" font-family="Arial" font-size="13px" font-style="normal" font-weight="normal" text-decoration="none" x="892.220458984375" y="773.5">*</text></g></g><g transform="translate(-142,-142) scale(1,1)"><path fill="none" stroke="#000000" d="M 1006 655 L 1103 678" stroke-miterlimit="10" stroke-dasharray="3"/></g><g transform="translate(-142,-142) scale(1,1)"><path fill="#FFFFFF" stroke="none" d="M 1081.2805977750363 681.5025086709727 L 1103 678 L 1085.1654157710004 665.1187110358195"/></g><g transform="translate(-142,-142) scale(1,1)"><path fill="none" stroke="#000000" d="M 1081.2805977750363 681.5025086709727 L 1103 678 L 1085.1654157710004 665.1187110358195 L 1081.2805977750363 681.5025086709727" stroke-miterlimit="10"/></g><g transform="translate(-142,-142) scale(1,1)"><path fill="none" stroke="#000000" d="M 1006 701 L 1103 700" stroke-miterlimit="10" stroke-dasharray="3"/></g><g transform="translate(-142,-142) scale(1,1)"><path fill="#FFFFFF" stroke="none" d="M 1082.7625198687551 708.6281167086145 L 1103 700 L 1082.5889407315385 691.790940398599"/></g><g transform="translate(-142,-142) scale(1,1)"><path fill="none" stroke="#000000" d="M 1082.7625198687551 708.6281167086145 L 1103 700 L 1082.5889407315385 691.790940398599 L 1082.7625198687551 708.6281167086145" stroke-miterlimit="10"/></g><g transform="translate(-142,-142) scale(1,1)"><path fill="none" stroke="#000000" d="M 1002 754 L 1103 726" stroke-miterlimit="10" stroke-dasharray="3"/></g><g transform="translate(-142,-142) scale(1,1)"><path fill="#FFFFFF" stroke="none" d="M 1085.6625457148282 739.5429937203551 L 1103 726 L 1081.1642258092133 723.316911203673"/></g><g transform="translate(-142,-142) scale(1,1)"><path fill="none" stroke="#000000" d="M 1085.6625457148282 739.5429937203551 L 1103 726 L 1081.1642258092133 723.316911203673 L 1085.6625457148282 739.5429937203551" stroke-miterlimit="10"/></g><g transform="translate(-142,-142) scale(1,1)"><rect fill="#C0C0C0" stroke="none" x="367" y="655" width="58.11181640625" height="44" opacity="0.2"/></g><g transform="translate(-142,-142) scale(1,1)"><rect fill="#ffffff" stroke="none" x="360" y="648" width="58.11181640625" height="44"/></g><g transform="translate(-142,-142) scale(1,1)"><path fill="none" stroke="#000000" d="M 360 648 L 418.11181640625 648 L 418.11181640625 692 L 360 692 L 360 648 Z Z" stroke-miterlimit="10"/></g><g transform="translate(-142,-142) scale(1,1)"><path fill="none" stroke="#000000" d="M 360 673 L 418.11181640625 673" stroke-miterlimit="10"/></g><g transform="translate(-142,-142) scale(1,1)"><g><path fill="none" stroke="none"/><text fill="#000000" stroke="none" font-family="Arial" font-size="13px" font-style="normal" font-weight="bold" text-decoration="none" x="364.5" y="665.5">Point2D</text></g></g><g transform="translate(-142,-142) scale(1,1)"><path fill="none" stroke="#000000" d="M 691 879 L 691 773" stroke-miterlimit="10"/></g><g transform="translate(-142,-142) scale(1,1)"><path fill="none" stroke="#000000" d="M 695.209517756016 783.1626748576241 L 691 773 L 686.790482243984 783.1626748576241" stroke-miterlimit="10"/></g><g transform="translate(-142,-142) scale(1,1)"><rect fill="#C0C0C0" stroke="none" x="655" y="887" width="87.72998046875" height="44" opacity="0.2"/></g><g transform="translate(-142,-142) scale(1,1)"><rect fill="#ffffff" stroke="none" x="648" y="880" width="87.72998046875" height="44"/></g><g transform="translate(-142,-142) scale(1,1)"><path fill="none" stroke="#000000" d="M 648 880 L 735.72998046875 880 L 735.72998046875 924 L 648 924 L 648 880 Z Z" stroke-miterlimit="10"/></g><g transform="translate(-142,-142) scale(1,1)"><path fill="none" stroke="#000000" d="M 648 905 L 735.72998046875 905" stroke-miterlimit="10"/></g><g transform="translate(-142,-142) scale(1,1)"><g><path fill="none" stroke="none"/><text fill="#000000" stroke="none" font-family="Arial" font-size="13px" font-style="normal" font-weight="bold" text-decoration="none" x="652.5" y="897.5">MapImporter</text></g></g><g transform="translate(-142,-142) scale(1,1)"><path fill="none" stroke="#000000" d="M 283 543 L 280 904 L 647 902" stroke-miterlimit="10" stroke-dasharray="3"/></g><g transform="translate(-142,-142) scale(1,1)"><path fill="none" stroke="#000000" d="M 636.8604158554307 906.2648368521197 L 647 902 L 636.8145362341753 897.8459263517516" stroke-miterlimit="10"/></g><g transform="translate(-142,-142) scale(1,1)"><rect fill="#C0C0C0" stroke="none" x="207" y="207" width="64" height="15" opacity="0.2"/></g><g transform="translate(-142,-142) scale(1,1)"><rect fill="#C0C0C0" stroke="none" x="207" y="221" width="160" height="146" opacity="0.2"/></g><g transform="translate(-142,-142) scale(1,1)"><rect fill="#ffffff" stroke="none" x="200" y="215" width="160" height="145"/></g><g transform="translate(-142,-142) scale(1,1)"><path fill="none" stroke="#000000" d="M 200 215 L 360 215 L 360 360 L 200 360 L 200 215 Z Z" stroke-miterlimit="10"/></g><g transform="translate(-142,-142) scale(1,1)"><rect fill="#ffffff" stroke="none" x="200" y="200" width="64" height="15"/></g><g transform="translate(-142,-142) scale(1,1)"><path fill="none" stroke="#000000" d="M 200 200 L 264 200 L 264 215 L 200 215 L 200 200 Z Z" stroke-miterlimit="10"/></g><g transform="translate(-142,-142) scale(1,1)"><rect fill="#ffffff" stroke="none" x="200" y="214" width="160" height="146"/></g><g transform="translate(-142,-142) scale(1,1)"><path fill="none" stroke="#000000" d="M 200 214 L 360 214 L 360 360 L 200 360 L 200 214 Z Z" stroke-miterlimit="10"/></g><g transform="translate(-142,-142) scale(1,1)"><g><path fill="none" stroke="none"/><text fill="#000000" stroke="none" font-family="Arial" font-size="13px" font-style="normal" font-weight="bold" text-decoration="none" x="235.56005859375" y="232.5">user_interface</text></g></g><g transform="translate(-142,-142) scale(1,1)"><rect fill="#C0C0C0" stroke="none" x="239" y="279" width="92.09716796875" height="54" opacity="0.2"/></g><g transform="translate(-142,-142) scale(1,1)"><rect fill="#ffffff" stroke="none" x="232" y="272" width="92.09716796875" height="54"/></g><g transform="translate(-142,-142) scale(1,1)"><path fill="none" stroke="#000000" d="M 232 272 L 324.09716796875 272 L 324.09716796875 326 L 232 326 L 232 272 Z Z" stroke-miterlimit="10"/></g><g transform="translate(-142,-142) scale(1,1)"><path fill="none" stroke="#000000" d="M 232 297 L 324.09716796875 297" stroke-miterlimit="10"/></g><g transform="translate(-142,-142) scale(1,1)"><g><path fill="none" stroke="none"/><text fill="#000000" stroke="none" font-family="Arial" font-size="13px" font-style="normal" font-weight="bold" text-decoration="none" x="236.5" y="289.5">UserInterface</text></g></g><g transform="translate(-142,-142) scale(1,1)"><g><path fill="none" stroke="none"/><text fill="#000000" stroke="none" font-family="Arial" font-size="13px" font-style="normal" font-weight="normal" text-decoration="none" x="237" y="312.5">+notify(boat)</text></g></g><g transform="translate(-142,-142) scale(1,1)"><rect fill="#C0C0C0" stroke="none" x="439" y="231" width="165.42529296875" height="62" opacity="0.2"/></g><g transform="translate(-142,-142) scale(1,1)"><rect fill="#ffffff" stroke="none" x="432" y="224" width="165.42529296875" height="62"/></g><g transform="translate(-142,-142) scale(1,1)"><path fill="none" stroke="#000000" d="M 432 224 L 597.42529296875 224 L 597.42529296875 286 L 432 286 L 432 224 Z Z" stroke-miterlimit="10"/></g><g transform="translate(-142,-142) scale(1,1)"><path fill="none" stroke="#000000" d="M 432 249 L 597.42529296875 249" stroke-miterlimit="10"/></g><g transform="translate(-142,-142) scale(1,1)"><g><path fill="none" stroke="none"/><text fill="#000000" stroke="none" font-family="Arial" font-size="13px" font-style="normal" font-weight="bold" text-decoration="none" x="463.77587890625" y="241.5">LanguageParser</text></g></g><g transform="translate(-142,-142) scale(1,1)"><g><path fill="none" stroke="none"/><text fill="#000000" stroke="none" font-family="Arial" font-size="13px" font-style="normal" font-weight="normal" text-decoration="none" x="437" y="264.5">+setLanguage()</text></g></g><g transform="translate(-142,-142) scale(1,1)"><g><path fill="none" stroke="none"/><text fill="#000000" stroke="none" font-family="Arial" font-size="13px" font-style="normal" font-weight="normal" text-decoration="none" x="437" y="279.5">+getTextFor(label): string</text></g></g><g transform="translate(-142,-142) scale(1,1)"><rect fill="#C0C0C0" stroke="none" x="263" y="495" width="55.24267578125" height="54" opacity="0.2"/></g><g transform="translate(-142,-142) scale(1,1)"><rect fill="#ffffff" stroke="none" x="256" y="488" width="55.24267578125" height="54"/></g><g transform="translate(-142,-142) scale(1,1)"><path fill="none" stroke="#000000" d="M 256 488 L 311.24267578125 488 L 311.24267578125 542 L 256 542 L 256 488 Z Z" stroke-miterlimit="10"/></g><g transform="translate(-142,-142) scale(1,1)"><path fill="none" stroke="#000000" d="M 256 513 L 311.24267578125 513" stroke-miterlimit="10"/></g><g transform="translate(-142,-142) scale(1,1)"><g><path fill="none" stroke="none"/><text fill="#000000" stroke="none" font-family="Arial" font-size="13px" font-style="normal" font-weight="bold" text-decoration="none" x="260.5" y="505.5">Elgama</text></g></g><g transform="translate(-142,-142) scale(1,1)"><path fill="none" stroke="#000000" d="M 282 487 L 279 327" stroke-miterlimit="10"/></g><g transform="translate(-142,-142) scale(1,1)"><path fill="none" stroke="#000000" d="M 283.39929466403635 337.0819743333824 L 279 327 L 274.98173867049445 337.23980350826133" stroke-miterlimit="10"/></g><g transform="translate(-142,-142) scale(1,1)"><path fill="#000000" stroke="none" d="M 277.60070533596365 476.9180256666176 L 282 487 L 286.01826132950555 476.7601964917387 L 281.58757249065246 465.00386616813006"/></g><g transform="translate(-142,-142) scale(1,1)"><path fill="none" stroke="#000000" d="M 277.60070533596365 476.9180256666176 L 282 487 L 286.01826132950555 476.7601964917387 L 281.58757249065246 465.00386616813006 L 277.60070533596365 476.9180256666176" stroke-miterlimit="10"/></g><g transform="translate(-142,-142) scale(1,1)"><path fill="none" stroke="#000000" d="M 325 290 L 431 270" stroke-miterlimit="10"/></g><g transform="translate(-142,-142) scale(1,1)"><path fill="#000000" stroke="none" d="M 334.20599320670283 283.9792285313141 L 325 290 L 335.7669485574991 292.2522918905346 L 346.61855638246635 285.9210270976479"/></g><g transform="translate(-142,-142) scale(1,1)"><path fill="none" stroke="#000000" d="M 334.20599320670283 283.9792285313141 L 325 290 L 335.7669485574991 292.2522918905346 L 346.61855638246635 285.9210270976479 L 334.20599320670283 283.9792285313141" stroke-miterlimit="10"/></g><g transform="translate(-142,-142) scale(1,1)"><rect fill="#C0C0C0" stroke="none" x="391" y="447" width="135.0771484375" height="77" opacity="0.2"/></g><g transform="translate(-142,-142) scale(1,1)"><rect fill="#ffffff" stroke="none" x="384" y="440" width="135.0771484375" height="77"/></g><g transform="translate(-142,-142) scale(1,1)"><path fill="none" stroke="#000000" d="M 384 440 L 519.0771484375 440 L 519.0771484375 517 L 384 517 L 384 440 Z Z" stroke-miterlimit="10"/></g><g transform="translate(-142,-142) scale(1,1)"><path fill="none" stroke="#000000" d="M 384 465 L 519.0771484375 465" stroke-miterlimit="10"/></g><g transform="translate(-142,-142) scale(1,1)"><g><path fill="none" stroke="none"/><text fill="#000000" stroke="none" font-family="Arial" font-size="13px" font-style="normal" font-weight="bold" text-decoration="none" x="414.693603515625" y="457.5">ScoreBoard</text></g></g><g transform="translate(-142,-142) scale(1,1)"><g><path fill="none" stroke="none"/><text fill="#000000" stroke="none" font-family="Arial" font-size="13px" font-style="normal" font-weight="normal" text-decoration="none" x="389" y="480.5">+loadScores()</text></g></g><g transform="translate(-142,-142) scale(1,1)"><g><path fill="none" stroke="none"/><text fill="#000000" stroke="none" font-family="Arial" font-size="13px" font-style="normal" font-weight="normal" text-decoration="none" x="389" y="495.5">+getScores(): score[*]</text></g></g><g transform="translate(-142,-142) scale(1,1)"><g><path fill="none" stroke="none"/><text fill="#000000" stroke="none" font-family="Arial" font-size="13px" font-style="normal" font-weight="normal" text-decoration="none" x="389" y="510.5">+addScore(score)</text></g></g><g transform="translate(-142,-142) scale(1,1)"><path fill="none" stroke="#000000" d="M 639 433 L 325 317" stroke-miterlimit="10"/></g><g transform="translate(-142,-142) scale(1,1)"><path fill="#000000" stroke="none" d="M 335.9917110980966 316.5730490239138 L 325 317 L 333.0742133847322 324.47041352388277 L 345.6368079515777 324.62378892478665"/></g><g transform="translate(-142,-142) scale(1,1)"><path fill="none" stroke="#000000" d="M 335.9917110980966 316.5730490239138 L 325 317 L 333.0742133847322 324.47041352388277 L 345.6368079515777 324.62378892478665 L 335.9917110980966 316.5730490239138" stroke-miterlimit="10"/></g><g transform="translate(-142,-142) scale(1,1)"><path fill="none" stroke="#000000" d="M 413 439 L 305 327" stroke-miterlimit="10"/></g><g transform="translate(-142,-142) scale(1,1)"><path fill="#000000" stroke="none" d="M 315.0844714540992 331.3935675130194 L 305 327 L 309.02407676781877 337.2375195319326 L 320.2709825528531 342.83657449925505"/></g><g transform="translate(-142,-142) scale(1,1)"><path fill="none" stroke="#000000" d="M 315.0844714540992 331.3935675130194 L 305 327 L 309.02407676781877 337.2375195319326 L 320.2709825528531 342.83657449925505 L 315.0844714540992 331.3935675130194" stroke-miterlimit="10"/></g><g transform="translate(-142,-142) scale(1,1)"><path fill="none" stroke="#000000" d="M 1223 421 L 1145 429" stroke-miterlimit="10"/></g><g transform="translate(-142,-142) scale(1,1)"><path fill="#FFFFFF" stroke="none" d="M 1164.3602959881227 418.5511273693148 L 1145 429 L 1166.0782652718922 435.30132788606824"/></g><g transform="translate(-142,-142) scale(1,1)"><path fill="none" stroke="#000000" d="M 1164.3602959881227 418.5511273693148 L 1145 429 L 1166.0782652718922 435.30132788606824 L 1164.3602959881227 418.5511273693148" stroke-miterlimit="10"/></g><g transform="translate(-142,-142) scale(1,1)"><path fill="none" stroke="#000000" d="M 1223 471 L 1145 462" stroke-miterlimit="10"/></g><g transform="translate(-142,-142) scale(1,1)"><path fill="#FFFFFF" stroke="none" d="M 1166.156408467495 455.96622997152724 L 1145 462 L 1164.2263595961717 472.6933201896651"/></g><g transform="translate(-142,-142) scale(1,1)"><path fill="none" stroke="#000000" d="M 1166.156408467495 455.96622997152724 L 1145 462 L 1164.2263595961717 472.6933201896651 L 1166.156408467495 455.96622997152724" stroke-miterlimit="10"/></g><g transform="translate(-142,-142) scale(1,1)"><path fill="none" stroke="#000000" d="M 1059 356 L 1039 391" stroke-miterlimit="10"/></g><g transform="translate(-142,-142) scale(1,1)"><path fill="#000000" stroke="none" d="M 1040.3872137914152 380.08782157876317 L 1039 391 L 1047.6969836380395 384.2648329196912 L 1049.9150566438504 371.8986508732619"/></g><g transform="translate(-142,-142) scale(1,1)"><path fill="none" stroke="#000000" d="M 1040.3872137914152 380.08782157876317 L 1039 391 L 1047.6969836380395 384.2648329196912 L 1049.9150566438504 371.8986508732619 L 1040.3872137914152 380.08782157876317" stroke-miterlimit="10"/></g><g transform="translate(-142,-142) scale(1,1)"><g><path fill="none" stroke="none"/><text fill="#000000" stroke="none" font-family="Arial" font-size="13px" font-style="normal" font-weight="normal" text-decoration="none" x="1029" y="638">polygon</text></g></g><g transform="translate(-142,-142) scale(1,1)"><g><path fill="none" stroke="none"/><text fill="#000000" stroke="none" font-family="Arial" font-size="13px" font-style="normal" font-weight="normal" text-decoration="none" x="1029" y="694">disk</text></g></g><g transform="translate(-142,-142) scale(1,1)"><g><path fill="none" stroke="none"/><text fill="#000000" stroke="none" font-family="Arial" font-size="13px" font-style="normal" font-weight="normal" text-decoration="none" x="1029" y="758">line</text></g></g><g transform="translate(-142,-142) scale(1,1)"><rect fill="#C0C0C0" stroke="none" x="935" y="255" width="325.83056640625" height="107" opacity="0.2"/></g><g transform="translate(-142,-142) scale(1,1)"><rect fill="#ffffff" stroke="none" x="928" y="248" width="325.83056640625" height="107"/></g><g transform="translate(-142,-142) scale(1,1)"><path fill="none" stroke="#000000" d="M 928 248 L 1253.83056640625 248 L 1253.83056640625 355 L 928 355 L 928 248 Z Z" stroke-miterlimit="10"/></g><g transform="translate(-142,-142) scale(1,1)"><path fill="none" stroke="#000000" d="M 928 273 L 1253.83056640625 273" stroke-miterlimit="10"/></g><g transform="translate(-142,-142) scale(1,1)"><g><path fill="none" stroke="none"/><text fill="#000000" stroke="none" font-family="Arial" font-size="13px" font-style="normal" font-weight="bold" text-decoration="none" x="1032.40576171875" y="265.5">SailboatNavigation</text></g></g><g transform="translate(-142,-142) scale(1,1)"><g><path fill="none" stroke="none"/><text fill="#000000" stroke="none" font-family="Arial" font-size="13px" font-style="normal" font-weight="normal" text-decoration="none" x="933" y="288.5">+SailboatNavigation(map, startPos, sailSize, crewSize)</text></g></g><g transform="translate(-142,-142) scale(1,1)"><g><path fill="none" stroke="none"/><text fill="#000000" stroke="none" font-family="Arial" font-size="13px" font-style="normal" font-weight="normal" text-decoration="none" x="933" y="303.5">+moveForward(): newPos</text></g></g><g transform="translate(-142,-142) scale(1,1)"><g><path fill="none" stroke="none"/><text fill="#000000" stroke="none" font-family="Arial" font-size="13px" font-style="normal" font-weight="normal" text-decoration="none" x="933" y="318.5">-tack()</text></g></g><g transform="translate(-142,-142) scale(1,1)"><g><path fill="none" stroke="none"/><text fill="#000000" stroke="none" font-family="Arial" font-size="13px" font-style="normal" font-weight="normal" text-decoration="none" x="933" y="333.5">-stepForward()</text></g></g><g transform="translate(-142,-142) scale(1,1)"><g><path fill="none" stroke="none"/><text fill="#000000" stroke="none" font-family="Arial" font-size="13px" font-style="normal" font-weight="normal" text-decoration="none" x="933" y="348.5">+setDirection(angle)</text></g></g><g transform="translate(-142,-142) scale(1,1)"><rect fill="#C0C0C0" stroke="none" x="503" y="687" width="390.20849609375" height="92" opacity="0.2"/></g><g transform="translate(-142,-142) scale(1,1)"><rect fill="#ffffff" stroke="none" x="496" y="680" width="390.20849609375" height="92"/></g><g transform="translate(-142,-142) scale(1,1)"><path fill="none" stroke="#000000" d="M 496 680 L 886.20849609375 680 L 886.20849609375 772 L 496 772 L 496 680 Z Z" stroke-miterlimit="10"/></g><g transform="translate(-142,-142) scale(1,1)"><path fill="none" stroke="#000000" d="M 496 705 L 886.20849609375 705" stroke-miterlimit="10"/></g><g transform="translate(-142,-142) scale(1,1)"><g><path fill="none" stroke="none"/><text fill="#000000" stroke="none" font-family="Arial" font-size="13px" font-style="normal" font-weight="bold" text-decoration="none" x="678.104248046875" y="697.5">Map</text></g></g><g transform="translate(-142,-142) scale(1,1)"><g><path fill="none" stroke="none"/><text fill="#000000" stroke="none" font-family="Arial" font-size="13px" font-style="normal" font-weight="normal" text-decoration="none" x="501" y="720.5">+getWindDirection(position): direction</text></g></g><g transform="translate(-142,-142) scale(1,1)"><g><path fill="none" stroke="none"/><text fill="#000000" stroke="none" font-family="Arial" font-size="13px" font-style="normal" font-weight="normal" text-decoration="none" x="501" y="735.5">+getWindForce(position): force</text></g></g><g transform="translate(-142,-142) scale(1,1)"><g><path fill="none" stroke="none"/><text fill="#000000" stroke="none" font-family="Arial" font-size="13px" font-style="normal" font-weight="normal" text-decoration="none" x="501" y="750.5">+isMovePossible(curPos, newPos): boolean</text></g></g><g transform="translate(-142,-142) scale(1,1)"><g><path fill="none" stroke="none"/><text fill="#000000" stroke="none" font-family="Arial" font-size="13px" font-style="normal" font-weight="normal" text-decoration="none" x="501" y="765.5">+havePassedCheckpoint(checkPointId, oldPos, newPos): boolean</text></g></g><g transform="translate(-142,-142) scale(1,1)"><rect fill="#C0C0C0" stroke="none" x="1111" y="671" width="187.826171875" height="70" opacity="0.2"/></g><g transform="translate(-142,-142) scale(1,1)"><rect fill="#ffffff" stroke="none" x="1104" y="664" width="187.826171875" height="70"/></g><g transform="translate(-142,-142) scale(1,1)"><path fill="none" stroke="#000000" d="M 1104 664 L 1291.826171875 664 L 1291.826171875 734 L 1104 734 L 1104 664 Z Z" stroke-miterlimit="10"/></g><g transform="translate(-142,-142) scale(1,1)"><path fill="none" stroke="#000000" d="M 1104 702 L 1291.826171875 702" stroke-miterlimit="10"/></g><g transform="translate(-142,-142) scale(1,1)"><g><path fill="none" stroke="none"/><text fill="#000000" stroke="none" font-family="Arial" font-size="13px" font-style="normal" font-weight="normal" text-decoration="none" x="1165.752685546875" y="679.5">«interface»</text></g></g><g transform="translate(-142,-142) scale(1,1)"><g><path fill="none" stroke="none"/><text fill="#000000" stroke="none" font-family="Arial" font-size="13px" font-style="normal" font-weight="bold" text-decoration="none" x="1159.627197265625" y="694.5">MapElement</text></g></g><g transform="translate(-142,-142) scale(1,1)"><g><path fill="none" stroke="none"/><text fill="#000000" stroke="none" font-family="Arial" font-size="13px" font-style="normal" font-weight="normal" text-decoration="none" x="1109" y="717.5">+isColliding(fromPoint, toPoint)</text></g></g><g transform="translate(-142,-142) scale(1,1)"><rect fill="#C0C0C0" stroke="none" x="927" y="751" width="80.5126953125" height="44" opacity="0.2"/></g><g transform="translate(-142,-142) scale(1,1)"><rect fill="#ffffff" stroke="none" x="920" y="744" width="80.5126953125" height="44"/></g><g transform="translate(-142,-142) scale(1,1)"><path fill="none" stroke="#000000" d="M 920 744 L 1000.5126953125 744 L 1000.5126953125 788 L 920 788 L 920 744 Z Z" stroke-miterlimit="10"/></g><g transform="translate(-142,-142) scale(1,1)"><path fill="none" stroke="#000000" d="M 920 769 L 1000.5126953125 769" stroke-miterlimit="10"/></g><g transform="translate(-142,-142) scale(1,1)"><g><path fill="none" stroke="none"/><text fill="#000000" stroke="none" font-family="Arial" font-size="13px" font-style="normal" font-weight="bold" text-decoration="none" x="924.5" y="761.5">CheckPoint</text></g></g><g transform="translate(-142,-142) scale(1,1)"><path fill="none" stroke="#000000" d="M 730 679 L 768 632 L 768 304 L 927 303" stroke-miterlimit="10"/></g><g transform="translate(-142,-142) scale(1,1)"><path fill="#FFFFFF" stroke="none" d="M 916.8640005615764 307.27334943390747 L 927 303 L 916.811051699892 298.85448042608334 L 905.0004350964629 303.13836204341845"/></g><g transform="translate(-142,-142) scale(1,1)"><path fill="none" stroke="#000000" d="M 916.8640005615764 307.27334943390747 L 927 303 L 916.811051699892 298.85448042608334 L 905.0004350964629 303.13836204341845 L 916.8640005615764 307.27334943390747" stroke-miterlimit="10"/></g><g transform="translate(-142,-142) scale(1,1)"><path fill="none" stroke="#000000" d="M 639 456 L 520 470" stroke-miterlimit="10" stroke-dasharray="3"/></g><g transform="translate(-142,-142) scale(1,1)"><path fill="none" stroke="#000000" d="M 529.6012213701163 464.63189528771824 L 520 470 L 530.5849119826563 472.9932654943085" stroke-miterlimit="10"/></g></g></svg>