<svg version="1.1" xmlns="http://www.w3.org/2000/svg" width="1532" height="852"><defs/><g><g transform="translate(2,2) scale(1,1)"><path fill="#ffffff" stroke="#000000" d="M 8 8 L 1520 8 L 1520 840 L 8 840 L 8 8" stroke-miterlimit="10"/></g><g transform="translate(2,2) scale(1,1)"><path fill="#ffffff" stroke="none" d="M 8 8 L 8 30 L 165.66064453125 30 L 176.66064453125 19 L 176.66064453125 8 L 8 8"/></g><g transform="translate(2,2) scale(1,1)"><path fill="none" stroke="#000000" d="M 8 8 L 8 30 L 165.66064453125 30 L 176.66064453125 19 L 176.66064453125 8 L 8 8 L 8 8" stroke-miterlimit="10"/></g><g transform="translate(2,2) scale(1,1)"><g><path fill="none" stroke="none"/><text fill="#000000" stroke="none" font-family="Arial" font-size="13px" text-decoration="none" x="32.72998046875" y="23.5">race ending sequence</text></g></g><g transform="translate(2,2) scale(1,1)"><g><path fill="none" stroke="none"/><text fill="#000000" stroke="none" font-family="Arial" font-size="13px" font-weight="bold" text-decoration="none" x="12.279541015625" y="23.5">sd</text></g></g><g transform="translate(2,2) scale(1,1)"><rect fill="#C0C0C0" stroke="none" x="71" y="47" width="138.9326171875" height="39" opacity="0.2"/></g><g transform="translate(2,2) scale(1,1)"><rect fill="#ffffff" stroke="none" x="64" y="40" width="138.9326171875" height="39"/></g><g transform="translate(2,2) scale(1,1)"><path fill="none" stroke="#000000" d="M 64 40 L 202.9326171875 40 L 202.9326171875 79 L 64 79 L 64 40 Z Z" stroke-miterlimit="10"/></g><g transform="translate(2,2) scale(1,1)"><g><path fill="none" stroke="none"/><text fill="#000000" stroke="none" font-family="Arial" font-size="13px" font-weight="bold" text-decoration="none" x="73.5" y="57.5">gp: GamePresenter</text></g></g><g transform="translate(2,2) scale(1,1)"><path fill="none" stroke="#000000" d="M 134.5 80 L 134.5 822" stroke-miterlimit="10" stroke-dasharray="3"/></g><g transform="translate(2,2) scale(1,1)"><rect fill="#C0C0C0" stroke="none" x="287" y="47" width="128.09716796875" height="39" opacity="0.2"/></g><g transform="translate(2,2) scale(1,1)"><rect fill="#ffffff" stroke="none" x="280" y="40" width="128.09716796875" height="39"/></g><g transform="translate(2,2) scale(1,1)"><path fill="none" stroke="#000000" d="M 280 40 L 408.09716796875 40 L 408.09716796875 79 L 280 79 L 280 40 Z Z" stroke-miterlimit="10"/></g><g transform="translate(2,2) scale(1,1)"><g><path fill="none" stroke="none"/><text fill="#000000" stroke="none" font-family="Arial" font-size="13px" font-weight="bold" text-decoration="none" x="289.5" y="57.5">rm: RaceManager</text></g></g><g transform="translate(2,2) scale(1,1)"><path fill="none" stroke="#000000" d="M 345.5 80 L 345.5 766" stroke-miterlimit="10" stroke-dasharray="3"/></g><g transform="translate(2,2) scale(1,1)"><rect fill="#C0C0C0" stroke="none" x="463" y="47" width="93.89599609375" height="39" opacity="0.2"/></g><g transform="translate(2,2) scale(1,1)"><rect fill="#ffffff" stroke="none" x="456" y="40" width="93.89599609375" height="39"/></g><g transform="translate(2,2) scale(1,1)"><path fill="none" stroke="#000000" d="M 456 40 L 549.89599609375 40 L 549.89599609375 79 L 456 79 L 456 40 Z Z" stroke-miterlimit="10"/></g><g transform="translate(2,2) scale(1,1)"><g><path fill="none" stroke="none"/><text fill="#000000" stroke="none" font-family="Arial" font-size="13px" font-weight="bold" text-decoration="none" x="465.5" y="57.5">timer: Timer</text></g></g><g transform="translate(2,2) scale(1,1)"><path fill="none" stroke="#000000" d="M 503.5 80 L 503.5 674" stroke-miterlimit="10" stroke-dasharray="3"/></g><g transform="translate(2,2) scale(1,1)"><rect fill="#C0C0C0" stroke="none" x="631" y="47" width="144.6962890625" height="39" opacity="0.2"/></g><g transform="translate(2,2) scale(1,1)"><rect fill="#ffffff" stroke="none" x="624" y="40" width="144.6962890625" height="39"/></g><g transform="translate(2,2) scale(1,1)"><path fill="none" stroke="#000000" d="M 624 40 L 768.6962890625 40 L 768.6962890625 79 L 624 79 L 624 40 Z Z" stroke-miterlimit="10"/></g><g transform="translate(2,2) scale(1,1)"><g><path fill="none" stroke="none"/><text fill="#000000" stroke="none" font-family="Arial" font-size="13px" font-weight="bold" text-decoration="none" x="633.5" y="57.5">playerBoat: Sailboat</text></g></g><g transform="translate(2,2) scale(1,1)"><path fill="none" stroke="#000000" d="M 697.5 80 L 697.5 768" stroke-miterlimit="10" stroke-dasharray="3"/></g><g transform="translate(2,2) scale(1,1)"><path fill="#000000" stroke="none" d="M 16 137.5 C 16 133.6340064 19.1340064 130.5 23 130.5 C 26.8659936 130.5 30 133.6340064 30 137.5 C 30 141.3659936 26.8659936 144.5 23 144.5 C 19.1340064 144.5 16 141.3659936 16 137.5 Z"/></g><g transform="translate(2,2) scale(1,1)"><rect fill="#C0C0C0" stroke="none" x="575" y="451" width="97.76171875" height="39" opacity="0.2"/></g><g transform="translate(2,2) scale(1,1)"><rect fill="#ffffff" stroke="none" x="568" y="444" width="97.76171875" height="39"/></g><g transform="translate(2,2) scale(1,1)"><path fill="none" stroke="#000000" d="M 568 444 L 665.76171875 444 L 665.76171875 483 L 568 483 L 568 444 Z Z" stroke-miterlimit="10"/></g><g transform="translate(2,2) scale(1,1)"><g><path fill="none" stroke="none"/><text fill="#000000" stroke="none" font-family="Arial" font-size="13px" font-weight="bold" text-decoration="none" x="577.5" y="461.5">score: Score</text></g></g><g transform="translate(2,2) scale(1,1)"><path fill="none" stroke="#000000" d="M 617.5 484 L 617.5 615" stroke-miterlimit="10" stroke-dasharray="3"/></g><g transform="translate(2,2) scale(1,1)"><rect fill="#C0C0C0" stroke="none" x="495" y="499" width="182.50927734375" height="39" opacity="0.2"/></g><g transform="translate(2,2) scale(1,1)"><rect fill="#ffffff" stroke="none" x="488" y="492" width="182.50927734375" height="39"/></g><g transform="translate(2,2) scale(1,1)"><path fill="none" stroke="#000000" d="M 488 492 L 670.50927734375 492 L 670.50927734375 531 L 488 531 L 488 492 Z Z" stroke-miterlimit="10"/></g><g transform="translate(2,2) scale(1,1)"><g><path fill="none" stroke="none"/><text fill="#000000" stroke="none" font-family="Arial" font-size="13px" font-weight="bold" text-decoration="none" x="516.279541015625" y="509.5">sWriter: ScoreWriter</text></g></g><g transform="translate(2,2) scale(1,1)"><path fill="none" stroke="#000000" d="M 580.5 532 L 580.5 618" stroke-miterlimit="10" stroke-dasharray="3"/></g><g transform="translate(2,2) scale(1,1)"><rect fill="#C0C0C0" stroke="none" x="823" y="47" width="235.0361328125" height="39" opacity="0.2"/></g><g transform="translate(2,2) scale(1,1)"><rect fill="#ffffff" stroke="none" x="816" y="40" width="235.0361328125" height="39"/></g><g transform="translate(2,2) scale(1,1)"><path fill="none" stroke="#000000" d="M 816 40 L 1051.0361328125 40 L 1051.0361328125 79 L 816 79 L 816 40 Z Z" stroke-miterlimit="10"/></g><g transform="translate(2,2) scale(1,1)"><g><path fill="none" stroke="none"/><text fill="#000000" stroke="none" font-family="Arial" font-size="13px" font-weight="bold" text-decoration="none" x="825.5" y="57.5">cpTracker: BoatCheckPointTracker</text></g></g><g transform="translate(2,2) scale(1,1)"><path fill="none" stroke="#000000" d="M 934.5 80 L 934.5 753" stroke-miterlimit="10" stroke-dasharray="3"/></g><g transform="translate(2,2) scale(1,1)"><rect fill="#C0C0C0" stroke="none" x="1135" y="47" width="150.47265625" height="39" opacity="0.2"/></g><g transform="translate(2,2) scale(1,1)"><rect fill="#ffffff" stroke="none" x="1128" y="40" width="150.47265625" height="39"/></g><g transform="translate(2,2) scale(1,1)"><path fill="none" stroke="#000000" d="M 1128 40 L 1278.47265625 40 L 1278.47265625 79 L 1128 79 L 1128 40 Z Z" stroke-miterlimit="10"/></g><g transform="translate(2,2) scale(1,1)"><g><path fill="none" stroke="none"/><text fill="#000000" stroke="none" font-family="Arial" font-size="13px" font-weight="bold" text-decoration="none" x="1137.5" y="57.5">_nextCP: CheckPoint</text></g></g><g transform="translate(2,2) scale(1,1)"><path fill="none" stroke="#000000" d="M 1204.5 80 L 1204.5 768" stroke-miterlimit="10" stroke-dasharray="3"/></g><g transform="translate(2,2) scale(1,1)"><rect fill="#C0C0C0" stroke="none" x="1327" y="47" width="172.87353515625" height="39" opacity="0.2"/></g><g transform="translate(2,2) scale(1,1)"><rect fill="#ffffff" stroke="none" x="1320" y="40" width="172.87353515625" height="39"/></g><g transform="translate(2,2) scale(1,1)"><path fill="none" stroke="#000000" d="M 1320 40 L 1492.87353515625 40 L 1492.87353515625 79 L 1320 79 L 1320 40 Z Z" stroke-miterlimit="10"/></g><g transform="translate(2,2) scale(1,1)"><g><path fill="none" stroke="none"/><text fill="#000000" stroke="none" font-family="Arial" font-size="13px" font-weight="bold" text-decoration="none" x="1329.5" y="57.5">_cps: CheckPointIterator</text></g></g><g transform="translate(2,2) scale(1,1)"><path fill="none" stroke="#000000" d="M 1407.5 80 L 1407.5 354" stroke-miterlimit="10" stroke-dasharray="3"/></g><g transform="translate(2,2) scale(1,1)"><path fill="none" stroke="#000000" d="M 30 138 L 127 138" stroke-miterlimit="10"/></g><g transform="translate(2,2) scale(1,1)"><path fill="#000000" stroke="none" d="M 116.83732514237585 142.209517756016 L 127 138 L 116.83732514237585 133.790482243984"/></g><g transform="translate(2,2) scale(1,1)"><path fill="none" stroke="#000000" d="M 116.83732514237585 142.209517756016 L 127 138 L 116.83732514237585 133.790482243984 L 116.83732514237585 142.209517756016" stroke-miterlimit="10"/></g><g transform="translate(2,2) scale(1,1)"><g><path fill="none" stroke="none"/><text fill="#000000" stroke="none" font-family="Arial" font-size="13px" text-decoration="none" x="38.5" y="132.5">1 : gameLoop</text></g></g><g transform="translate(2,2) scale(1,1)"><rect fill="#ffffff" stroke="none" x="127" y="138" width="13" height="606"/></g><g transform="translate(2,2) scale(1,1)"><path fill="none" stroke="#000000" d="M 127 138 L 140 138 L 140 744 L 127 744 L 127 138 Z Z" stroke-miterlimit="10"/></g><g transform="translate(2,2) scale(1,1)"><path fill="none" stroke="#000000" d="M 140 168 L 338 168" stroke-miterlimit="10"/></g><g transform="translate(2,2) scale(1,1)"><path fill="#000000" stroke="none" d="M 327.83732514237585 172.209517756016 L 338 168 L 327.83732514237585 163.790482243984"/></g><g transform="translate(2,2) scale(1,1)"><path fill="none" stroke="#000000" d="M 327.83732514237585 172.209517756016 L 338 168 L 327.83732514237585 163.790482243984 L 327.83732514237585 172.209517756016" stroke-miterlimit="10"/></g><g transform="translate(2,2) scale(1,1)"><g><path fill="none" stroke="none"/><text fill="#000000" stroke="none" font-family="Arial" font-size="13px" text-decoration="none" x="196.5" y="162.5">2 : moveBoat()</text></g></g><g transform="translate(2,2) scale(1,1)"><rect fill="#ffffff" stroke="none" x="338" y="168" width="13" height="400"/></g><g transform="translate(2,2) scale(1,1)"><path fill="none" stroke="#000000" d="M 338 168 L 351 168 L 351 568 L 338 568 L 338 168 Z Z" stroke-miterlimit="10"/></g><g transform="translate(2,2) scale(1,1)"><path fill="none" stroke="#000000" d="M 351 184 L 690 184" stroke-miterlimit="10"/></g><g transform="translate(2,2) scale(1,1)"><path fill="#000000" stroke="none" d="M 679.8373251423759 188.209517756016 L 690 184 L 679.8373251423758 179.790482243984"/></g><g transform="translate(2,2) scale(1,1)"><path fill="none" stroke="#000000" d="M 679.8373251423759 188.209517756016 L 690 184 L 679.8373251423758 179.790482243984 L 679.8373251423759 188.209517756016" stroke-miterlimit="10"/></g><g transform="translate(2,2) scale(1,1)"><g><path fill="none" stroke="none"/><text fill="#000000" stroke="none" font-family="Arial" font-size="13px" text-decoration="none" x="490.265869140625" y="178.5">3 : move()</text></g></g><g transform="translate(2,2) scale(1,1)"><rect fill="#ffffff" stroke="none" x="690" y="184" width="13" height="128"/></g><g transform="translate(2,2) scale(1,1)"><path fill="none" stroke="#000000" d="M 690 184 L 703 184 L 703 312 L 690 312 L 690 184 Z Z" stroke-miterlimit="10"/></g><g transform="translate(2,2) scale(1,1)"><path fill="none" stroke="#000000" d="M 703 200 L 733 200 L 733 220 L 710 220" stroke-miterlimit="10"/></g><g transform="translate(2,2) scale(1,1)"><path fill="#000000" stroke="none" d="M 720.1626748576241 215.790482243984 L 710 220 L 720.1626748576241 224.209517756016"/></g><g transform="translate(2,2) scale(1,1)"><path fill="none" stroke="#000000" d="M 720.1626748576241 215.790482243984 L 710 220 L 720.1626748576241 224.209517756016 L 720.1626748576241 215.790482243984" stroke-miterlimit="10"/></g><g transform="translate(2,2) scale(1,1)"><g><path fill="none" stroke="none"/><text fill="#000000" stroke="none" font-family="Arial" font-size="13px" text-decoration="none" x="712.62451171875" y="213.5">4 : notify()</text></g></g><g transform="translate(2,2) scale(1,1)"><rect fill="#ffffff" stroke="none" x="697" y="220" width="13" height="60"/></g><g transform="translate(2,2) scale(1,1)"><path fill="none" stroke="#000000" d="M 697 220 L 710 220 L 710 280 L 697 280 L 697 220 Z Z" stroke-miterlimit="10"/></g><g transform="translate(2,2) scale(1,1)"><path fill="none" stroke="#000000" d="M 710 240 L 927 240" stroke-miterlimit="10"/></g><g transform="translate(2,2) scale(1,1)"><path fill="#000000" stroke="none" d="M 916.8373251423759 244.209517756016 L 927 240 L 916.8373251423758 235.790482243984"/></g><g transform="translate(2,2) scale(1,1)"><path fill="none" stroke="#000000" d="M 916.8373251423759 244.209517756016 L 927 240 L 916.8373251423758 235.790482243984 L 916.8373251423759 244.209517756016" stroke-miterlimit="10"/></g><g transform="translate(2,2) scale(1,1)"><g><path fill="none" stroke="none"/><text fill="#000000" stroke="none" font-family="Arial" font-size="13px" text-decoration="none" x="732.5" y="234.5">5 : update(changed: Sailboat)</text></g></g><g transform="translate(2,2) scale(1,1)"><rect fill="#ffffff" stroke="none" x="927" y="240" width="13" height="112"/></g><g transform="translate(2,2) scale(1,1)"><path fill="none" stroke="#000000" d="M 927 240 L 940 240 L 940 352 L 927 352 L 927 240 Z Z" stroke-miterlimit="10"/></g><g transform="translate(2,2) scale(1,1)"><path fill="none" stroke="#000000" d="M 940 248 L 1197 248" stroke-miterlimit="10"/></g><g transform="translate(2,2) scale(1,1)"><path fill="#000000" stroke="none" d="M 1186.837325142376 252.209517756016 L 1197 248 L 1186.837325142376 243.790482243984"/></g><g transform="translate(2,2) scale(1,1)"><path fill="none" stroke="#000000" d="M 1186.837325142376 252.209517756016 L 1197 248 L 1186.837325142376 243.790482243984 L 1186.837325142376 252.209517756016" stroke-miterlimit="10"/></g><g transform="translate(2,2) scale(1,1)"><g><path fill="none" stroke="none"/><text fill="#000000" stroke="none" font-family="Arial" font-size="13px" text-decoration="none" x="924.5" y="242.5">6 : isColliding(from: Point2D, to: Point2D):boolean</text></g></g><g transform="translate(2,2) scale(1,1)"><rect fill="#ffffff" stroke="none" x="1197" y="248" width="13" height="28"/></g><g transform="translate(2,2) scale(1,1)"><path fill="none" stroke="#000000" d="M 1197 248 L 1210 248 L 1210 276 L 1197 276 L 1197 248 Z Z" stroke-miterlimit="10"/></g><g transform="translate(2,2) scale(1,1)"><path fill="none" stroke="#000000" d="M 1197 268 L 940 268" stroke-miterlimit="10" stroke-dasharray="3"/></g><g transform="translate(2,2) scale(1,1)"><path fill="none" stroke="#000000" d="M 950.1626748576241 263.790482243984 L 940 268 L 950.1626748576241 272.209517756016" stroke-miterlimit="10"/></g><g transform="translate(2,2) scale(1,1)"><g><path fill="none" stroke="none"/><text fill="#000000" stroke="none" font-family="Arial" font-size="13px" text-decoration="none" x="1046.2890625" y="282.5">7 : true</text></g></g><g transform="translate(2,2) scale(1,1)"><path fill="none" stroke="#000000" d="M 940 304 L 1400 304" stroke-miterlimit="10"/></g><g transform="translate(2,2) scale(1,1)"><path fill="#000000" stroke="none" d="M 1389.837325142376 308.209517756016 L 1400 304 L 1389.837325142376 299.790482243984"/></g><g transform="translate(2,2) scale(1,1)"><path fill="none" stroke="#000000" d="M 1389.837325142376 308.209517756016 L 1400 304 L 1389.837325142376 299.790482243984 L 1389.837325142376 308.209517756016" stroke-miterlimit="10"/></g><g transform="translate(2,2) scale(1,1)"><g><path fill="none" stroke="none"/><text fill="#000000" stroke="none" font-family="Arial" font-size="13px" text-decoration="none" x="1108.114990234375" y="298.5">8 : hasNext():boolean</text></g></g><g transform="translate(2,2) scale(1,1)"><rect fill="#ffffff" stroke="none" x="1400" y="304" width="13" height="28"/></g><g transform="translate(2,2) scale(1,1)"><path fill="none" stroke="#000000" d="M 1400 304 L 1413 304 L 1413 332 L 1400 332 L 1400 304 Z Z" stroke-miterlimit="10"/></g><g transform="translate(2,2) scale(1,1)"><path fill="none" stroke="#000000" d="M 1400 324 L 940 324" stroke-miterlimit="10" stroke-dasharray="3"/></g><g transform="translate(2,2) scale(1,1)"><path fill="none" stroke="#000000" d="M 950.1626748576241 319.790482243984 L 940 324 L 950.1626748576241 328.209517756016" stroke-miterlimit="10"/></g><g transform="translate(2,2) scale(1,1)"><g><path fill="none" stroke="none"/><text fill="#000000" stroke="none" font-family="Arial" font-size="13px" text-decoration="none" x="1145.989501953125" y="338.5">9 : false</text></g></g><g transform="translate(2,2) scale(1,1)"><path fill="none" stroke="#000000" d="M 351 375 L 927 375" stroke-miterlimit="10"/></g><g transform="translate(2,2) scale(1,1)"><path fill="#000000" stroke="none" d="M 916.8373251423759 379.209517756016 L 927 375 L 916.8373251423758 370.790482243984"/></g><g transform="translate(2,2) scale(1,1)"><path fill="none" stroke="#000000" d="M 916.8373251423759 379.209517756016 L 927 375 L 916.8373251423758 370.790482243984 L 916.8373251423759 379.209517756016" stroke-miterlimit="10"/></g><g transform="translate(2,2) scale(1,1)"><g><path fill="none" stroke="none"/><text fill="#000000" stroke="none" font-family="Arial" font-size="13px" text-decoration="none" x="567.5" y="369.5">10 : isFinished():boolean</text></g></g><g transform="translate(2,2) scale(1,1)"><rect fill="#ffffff" stroke="none" x="927" y="375" width="13" height="28"/></g><g transform="translate(2,2) scale(1,1)"><path fill="none" stroke="#000000" d="M 927 375 L 940 375 L 940 403 L 927 403 L 927 375 Z Z" stroke-miterlimit="10"/></g><g transform="translate(2,2) scale(1,1)"><path fill="none" stroke="#000000" d="M 927 395 L 351 395" stroke-miterlimit="10" stroke-dasharray="3"/></g><g transform="translate(2,2) scale(1,1)"><path fill="none" stroke="#000000" d="M 361.16267485762415 390.790482243984 L 351 395 L 361.16267485762415 399.209517756016" stroke-miterlimit="10"/></g><g transform="translate(2,2) scale(1,1)"><g><path fill="none" stroke="none"/><text fill="#000000" stroke="none" font-family="Arial" font-size="13px" text-decoration="none" x="614.904052734375" y="409.5">11 : true</text></g></g><g transform="translate(2,2) scale(1,1)"><path fill="none" stroke="#000000" d="M 351 416 L 496 416" stroke-miterlimit="10"/></g><g transform="translate(2,2) scale(1,1)"><path fill="#000000" stroke="none" d="M 485.83732514237585 420.209517756016 L 496 416 L 485.83732514237585 411.790482243984"/></g><g transform="translate(2,2) scale(1,1)"><path fill="none" stroke="#000000" d="M 485.83732514237585 420.209517756016 L 496 416 L 485.83732514237585 411.790482243984 L 485.83732514237585 420.209517756016" stroke-miterlimit="10"/></g><g transform="translate(2,2) scale(1,1)"><g><path fill="none" stroke="none"/><text fill="#000000" stroke="none" font-family="Arial" font-size="13px" text-decoration="none" x="393.259521484375" y="410.5">12 : stop()</text></g></g><g transform="translate(2,2) scale(1,1)"><rect fill="#ffffff" stroke="none" x="496" y="416" width="13" height="28"/></g><g transform="translate(2,2) scale(1,1)"><path fill="none" stroke="#000000" d="M 496 416 L 509 416 L 509 444 L 496 444 L 496 416 Z Z" stroke-miterlimit="10"/></g><g transform="translate(2,2) scale(1,1)"><path fill="none" stroke="#000000" d="M 351 464 L 568 464" stroke-miterlimit="10" stroke-dasharray="3"/></g><g transform="translate(2,2) scale(1,1)"><path fill="none" stroke="#000000" d="M 557.8373251423759 468.209517756016 L 568 464 L 557.8373251423758 459.790482243984" stroke-miterlimit="10"/></g><g transform="translate(2,2) scale(1,1)"><g><path fill="none" stroke="none"/><text fill="#000000" stroke="none" font-family="Arial" font-size="13px" text-decoration="none" x="446.5" y="458.5">13 : </text></g></g><g transform="translate(2,2) scale(1,1)"><g><path fill="none" stroke="none"/><text fill="#000000" stroke="none" font-family="Arial" font-size="13px" text-decoration="none" x="433.5" y="443.5">«create»</text></g></g><g transform="translate(2,2) scale(1,1)"><path fill="none" stroke="#000000" d="M 351 512 L 488 512" stroke-miterlimit="10" stroke-dasharray="3"/></g><g transform="translate(2,2) scale(1,1)"><path fill="none" stroke="#000000" d="M 477.83732514237585 516.209517756016 L 488 512 L 477.83732514237585 507.790482243984" stroke-miterlimit="10"/></g><g transform="translate(2,2) scale(1,1)"><g><path fill="none" stroke="none"/><text fill="#000000" stroke="none" font-family="Arial" font-size="13px" text-decoration="none" x="406.5" y="506.5">14 : </text></g></g><g transform="translate(2,2) scale(1,1)"><g><path fill="none" stroke="none"/><text fill="#000000" stroke="none" font-family="Arial" font-size="13px" text-decoration="none" x="393.5" y="491.5">«create»</text></g></g><g transform="translate(2,2) scale(1,1)"><path fill="none" stroke="#000000" d="M 351 552 L 573 552" stroke-miterlimit="10"/></g><g transform="translate(2,2) scale(1,1)"><path fill="#000000" stroke="none" d="M 562.8373251423759 556.209517756016 L 573 552 L 562.8373251423758 547.790482243984"/></g><g transform="translate(2,2) scale(1,1)"><path fill="none" stroke="#000000" d="M 562.8373251423759 556.209517756016 L 573 552 L 562.8373251423758 547.790482243984 L 562.8373251423759 556.209517756016" stroke-miterlimit="10"/></g><g transform="translate(2,2) scale(1,1)"><g><path fill="none" stroke="none"/><text fill="#000000" stroke="none" font-family="Arial" font-size="13px" text-decoration="none" x="393.5" y="546.5">15 : addScore(s: Score)</text></g></g><g transform="translate(2,2) scale(1,1)"><rect fill="#ffffff" stroke="none" x="573" y="552" width="13" height="28"/></g><g transform="translate(2,2) scale(1,1)"><path fill="none" stroke="#000000" d="M 573 552 L 586 552 L 586 580 L 573 580 L 573 552 Z Z" stroke-miterlimit="10"/></g><g transform="translate(2,2) scale(1,1)"><path fill="none" stroke="#000000" d="M 140 616 L 338 616" stroke-miterlimit="10"/></g><g transform="translate(2,2) scale(1,1)"><path fill="#000000" stroke="none" d="M 327.83732514237585 620.209517756016 L 338 616 L 327.83732514237585 611.790482243984"/></g><g transform="translate(2,2) scale(1,1)"><path fill="none" stroke="#000000" d="M 327.83732514237585 620.209517756016 L 338 616 L 327.83732514237585 611.790482243984 L 327.83732514237585 620.209517756016" stroke-miterlimit="10"/></g><g transform="translate(2,2) scale(1,1)"><g><path fill="none" stroke="none"/><text fill="#000000" stroke="none" font-family="Arial" font-size="13px" text-decoration="none" x="184.5" y="610.5">16 : getTime():long</text></g></g><g transform="translate(2,2) scale(1,1)"><rect fill="#ffffff" stroke="none" x="338" y="616" width="13" height="40"/></g><g transform="translate(2,2) scale(1,1)"><path fill="none" stroke="#000000" d="M 338 616 L 351 616 L 351 656 L 338 656 L 338 616 Z Z" stroke-miterlimit="10"/></g><g transform="translate(2,2) scale(1,1)"><path fill="none" stroke="#000000" d="M 351 624 L 496 624" stroke-miterlimit="10"/></g><g transform="translate(2,2) scale(1,1)"><path fill="#000000" stroke="none" d="M 485.83732514237585 628.209517756016 L 496 624 L 485.83732514237585 619.790482243984"/></g><g transform="translate(2,2) scale(1,1)"><path fill="none" stroke="#000000" d="M 485.83732514237585 628.209517756016 L 496 624 L 485.83732514237585 619.790482243984 L 485.83732514237585 628.209517756016" stroke-miterlimit="10"/></g><g transform="translate(2,2) scale(1,1)"><g><path fill="none" stroke="none"/><text fill="#000000" stroke="none" font-family="Arial" font-size="13px" text-decoration="none" x="368.5" y="618.5">17 : getTime():long</text></g></g><g transform="translate(2,2) scale(1,1)"><rect fill="#ffffff" stroke="none" x="496" y="624" width="13" height="28"/></g><g transform="translate(2,2) scale(1,1)"><path fill="none" stroke="#000000" d="M 496 624 L 509 624 L 509 652 L 496 652 L 496 624 Z Z" stroke-miterlimit="10"/></g><g transform="translate(2,2) scale(1,1)"><path fill="none" stroke="#000000" d="M 496 644 L 351 644" stroke-miterlimit="10" stroke-dasharray="3"/></g><g transform="translate(2,2) scale(1,1)"><path fill="none" stroke="#000000" d="M 361.16267485762415 639.790482243984 L 351 644 L 361.16267485762415 648.209517756016" stroke-miterlimit="10"/></g><g transform="translate(2,2) scale(1,1)"><g><path fill="none" stroke="none"/><text fill="#000000" stroke="none" font-family="Arial" font-size="13px" text-decoration="none" x="396.824951171875" y="658.5">18 : time</text></g></g><g transform="translate(2,2) scale(1,1)"><path fill="none" stroke="#000000" d="M 338 648 L 140 648" stroke-miterlimit="10" stroke-dasharray="3"/></g><g transform="translate(2,2) scale(1,1)"><path fill="none" stroke="#000000" d="M 150.16267485762415 643.790482243984 L 140 648 L 150.16267485762415 652.209517756016" stroke-miterlimit="10"/></g><g transform="translate(2,2) scale(1,1)"><g><path fill="none" stroke="none"/><text fill="#000000" stroke="none" font-family="Arial" font-size="13px" text-decoration="none" x="212.824951171875" y="662.5">19 : time</text></g></g><g transform="translate(2,2) scale(1,1)"><path fill="none" stroke="#000000" d="M 140 689 L 338 689" stroke-miterlimit="10"/></g><g transform="translate(2,2) scale(1,1)"><path fill="#000000" stroke="none" d="M 327.83732514237585 693.209517756016 L 338 689 L 327.83732514237585 684.790482243984"/></g><g transform="translate(2,2) scale(1,1)"><path fill="none" stroke="#000000" d="M 327.83732514237585 693.209517756016 L 338 689 L 327.83732514237585 684.790482243984 L 327.83732514237585 693.209517756016" stroke-miterlimit="10"/></g><g transform="translate(2,2) scale(1,1)"><g><path fill="none" stroke="none"/><text fill="#000000" stroke="none" font-family="Arial" font-size="13px" text-decoration="none" x="164.5" y="682.5">20 : isFinished():boolean</text></g></g><g transform="translate(2,2) scale(1,1)"><rect fill="#ffffff" stroke="none" x="338" y="689" width="13" height="55"/></g><g transform="translate(2,2) scale(1,1)"><path fill="none" stroke="#000000" d="M 338 689 L 351 689 L 351 744 L 338 744 L 338 689 Z Z" stroke-miterlimit="10"/></g><g transform="translate(2,2) scale(1,1)"><path fill="none" stroke="#000000" d="M 351 703 L 927 703" stroke-miterlimit="10"/></g><g transform="translate(2,2) scale(1,1)"><path fill="#000000" stroke="none" d="M 916.8373251423759 707.209517756016 L 927 703 L 916.8373251423758 698.790482243984"/></g><g transform="translate(2,2) scale(1,1)"><path fill="none" stroke="#000000" d="M 916.8373251423759 707.209517756016 L 927 703 L 916.8373251423758 698.790482243984 L 916.8373251423759 707.209517756016" stroke-miterlimit="10"/></g><g transform="translate(2,2) scale(1,1)"><g><path fill="none" stroke="none"/><text fill="#000000" stroke="none" font-family="Arial" font-size="13px" text-decoration="none" x="567.5" y="697.5">21 : isFinished():boolean</text></g></g><g transform="translate(2,2) scale(1,1)"><rect fill="#ffffff" stroke="none" x="927" y="703" width="13" height="28"/></g><g transform="translate(2,2) scale(1,1)"><path fill="none" stroke="#000000" d="M 927 703 L 940 703 L 940 731 L 927 731 L 927 703 Z Z" stroke-miterlimit="10"/></g><g transform="translate(2,2) scale(1,1)"><path fill="none" stroke="#000000" d="M 927 721 L 351 721" stroke-miterlimit="10" stroke-dasharray="3"/></g><g transform="translate(2,2) scale(1,1)"><path fill="none" stroke="#000000" d="M 361.16267485762415 716.790482243984 L 351 721 L 361.16267485762415 725.209517756016" stroke-miterlimit="10"/></g><g transform="translate(2,2) scale(1,1)"><g><path fill="none" stroke="none"/><text fill="#000000" stroke="none" font-family="Arial" font-size="13px" text-decoration="none" x="613.904052734375" y="735.5">22 : true</text></g></g><g transform="translate(2,2) scale(1,1)"><path fill="none" stroke="#000000" d="M 338 734 L 140 734" stroke-miterlimit="10" stroke-dasharray="3"/></g><g transform="translate(2,2) scale(1,1)"><path fill="none" stroke="#000000" d="M 150.16267485762415 729.790482243984 L 140 734 L 150.16267485762415 738.209517756016" stroke-miterlimit="10"/></g><g transform="translate(2,2) scale(1,1)"><g><path fill="none" stroke="none"/><text fill="#000000" stroke="none" font-family="Arial" font-size="13px" text-decoration="none" x="213.674072265625" y="748.5">23 : true</text></g></g><g transform="translate(2,2) scale(1,1)"><path fill="none" stroke="#000000" d="M 134 760 L 164 760 L 164 780 L 140 780" stroke-miterlimit="10"/></g><g transform="translate(2,2) scale(1,1)"><path fill="#000000" stroke="none" d="M 150.16267485762415 775.790482243984 L 140 780 L 150.16267485762415 784.209517756016"/></g><g transform="translate(2,2) scale(1,1)"><path fill="none" stroke="#000000" d="M 150.16267485762415 775.790482243984 L 140 780 L 150.16267485762415 784.209517756016 L 150.16267485762415 775.790482243984" stroke-miterlimit="10"/></g><g transform="translate(2,2) scale(1,1)"><g><path fill="none" stroke="none"/><text fill="#000000" stroke="none" font-family="Arial" font-size="13px" text-decoration="none" x="165.5" y="773.5">24 : setState(EndedRace)</text></g></g><g transform="translate(2,2) scale(1,1)"><rect fill="#ffffff" stroke="none" x="127" y="780" width="13" height="28"/></g><g transform="translate(2,2) scale(1,1)"><path fill="none" stroke="#000000" d="M 127 780 L 140 780 L 140 808 L 127 808 L 127 780 Z Z" stroke-miterlimit="10"/></g></g></svg>