<svg version="1.1" xmlns="http://www.w3.org/2000/svg" width="1674.47265625" height="932" style="background-color:white;"><defs/><g><g transform="translate(10,10) scale(1,1)"><path fill="none" stroke="#000000" d="M 0 0 L 1616 0 L 1616 912 L 0 912 L 0 0" stroke-miterlimit="10"/></g><g transform="translate(10,10) scale(1,1)"><path fill="#ffffff" stroke="none" d="M 0 0 L 0 22 L 191.60791015625 22 L 202.60791015625 11 L 202.60791015625 0 L 0 0"/></g><g transform="translate(10,10) scale(1,1)"><path fill="none" stroke="#000000" d="M 0 0 L 0 22 L 191.60791015625 22 L 202.60791015625 11 L 202.60791015625 0 L 0 0 L 0 0" stroke-miterlimit="10"/></g><g transform="translate(10,10) scale(1,1)"><g><path fill="none" stroke="none"/><text fill="#000000" stroke="none" font-family="Arial" font-size="13px" text-decoration="none" x="24.72998046875" y="15.5">race start and run sequence</text></g></g><g transform="translate(10,10) scale(1,1)"><g><path fill="none" stroke="none"/><text fill="#000000" stroke="none" font-family="Arial" font-size="13px" font-weight="bold" text-decoration="none" x="4.279541015625" y="15.5">sd</text></g></g><g transform="translate(10,10) scale(1,1)"><rect fill="#C0C0C0" stroke="none" x="47" y="47" width="138.9326171875" height="39" opacity="0.2"/></g><g transform="translate(10,10) scale(1,1)"><rect fill="#ffffff" stroke="none" x="40" y="40" width="138.9326171875" height="39"/></g><g transform="translate(10,10) scale(1,1)"><path fill="none" stroke="#000000" d="M 40 40 L 178.9326171875 40 L 178.9326171875 79 L 40 79 L 40 40 Z Z" stroke-miterlimit="10"/></g><g transform="translate(10,10) scale(1,1)"><g><path fill="none" stroke="none"/><text fill="#000000" stroke="none" font-family="Arial" font-size="13px" font-weight="bold" text-decoration="none" x="49.5" y="57.5">gp: GamePresenter</text></g></g><g transform="translate(10,10) scale(1,1)"><path fill="none" stroke="#000000" d="M 110.5 80 L 110.5 894" stroke-miterlimit="10" stroke-dasharray="3"/></g><g transform="translate(10,10) scale(1,1)"><rect fill="#C0C0C0" stroke="none" x="1375" y="47" width="100.61181640625" height="39" opacity="0.2"/></g><g transform="translate(10,10) scale(1,1)"><rect fill="#ffffff" stroke="none" x="1368" y="40" width="100.61181640625" height="39"/></g><g transform="translate(10,10) scale(1,1)"><path fill="none" stroke="#000000" d="M 1368 40 L 1468.61181640625 40 L 1468.61181640625 79 L 1368 79 L 1368 40 Z Z" stroke-miterlimit="10"/></g><g transform="translate(10,10) scale(1,1)"><g><path fill="none" stroke="none"/><text fill="#000000" stroke="none" font-family="Arial" font-size="13px" font-weight="bold" text-decoration="none" x="1377.5" y="57.5">board: Board</text></g></g><g transform="translate(10,10) scale(1,1)"><path fill="none" stroke="#000000" d="M 1419.5 80 L 1419.5 744" stroke-miterlimit="10" stroke-dasharray="3"/></g><g transform="translate(10,10) scale(1,1)"><rect fill="#C0C0C0" stroke="none" x="1175" y="47" width="144.6962890625" height="39" opacity="0.2"/></g><g transform="translate(10,10) scale(1,1)"><rect fill="#ffffff" stroke="none" x="1168" y="40" width="144.6962890625" height="39"/></g><g transform="translate(10,10) scale(1,1)"><path fill="none" stroke="#000000" d="M 1168 40 L 1312.6962890625 40 L 1312.6962890625 79 L 1168 79 L 1168 40 Z Z" stroke-miterlimit="10"/></g><g transform="translate(10,10) scale(1,1)"><g><path fill="none" stroke="none"/><text fill="#000000" stroke="none" font-family="Arial" font-size="13px" font-weight="bold" text-decoration="none" x="1177.5" y="57.5">playerBoat: Sailboat</text></g></g><g transform="translate(10,10) scale(1,1)"><path fill="none" stroke="#000000" d="M 1241.5 80 L 1241.5 766" stroke-miterlimit="10" stroke-dasharray="3"/></g><g transform="translate(10,10) scale(1,1)"><rect fill="#C0C0C0" stroke="none" x="527" y="107" width="128.09716796875" height="39" opacity="0.2"/></g><g transform="translate(10,10) scale(1,1)"><rect fill="#ffffff" stroke="none" x="520" y="100" width="128.09716796875" height="39"/></g><g transform="translate(10,10) scale(1,1)"><path fill="none" stroke="#000000" d="M 520 100 L 648.09716796875 100 L 648.09716796875 139 L 520 139 L 520 100 Z Z" stroke-miterlimit="10"/></g><g transform="translate(10,10) scale(1,1)"><g><path fill="none" stroke="none"/><text fill="#000000" stroke="none" font-family="Arial" font-size="13px" font-weight="bold" text-decoration="none" x="529.5" y="117.5">rm: RaceManager</text></g></g><g transform="translate(10,10) scale(1,1)"><path fill="none" stroke="#000000" d="M 585.5 140 L 585.5 894" stroke-miterlimit="10" stroke-dasharray="3"/></g><g transform="translate(10,10) scale(1,1)"><rect fill="#C0C0C0" stroke="none" x="775" y="163" width="93.89599609375" height="39" opacity="0.2"/></g><g transform="translate(10,10) scale(1,1)"><rect fill="#ffffff" stroke="none" x="768" y="156" width="93.89599609375" height="39"/></g><g transform="translate(10,10) scale(1,1)"><path fill="none" stroke="#000000" d="M 768 156 L 861.89599609375 156 L 861.89599609375 195 L 768 195 L 768 156 Z Z" stroke-miterlimit="10"/></g><g transform="translate(10,10) scale(1,1)"><g><path fill="none" stroke="none"/><text fill="#000000" stroke="none" font-family="Arial" font-size="13px" font-weight="bold" text-decoration="none" x="777.5" y="173.5">timer: Timer</text></g></g><g transform="translate(10,10) scale(1,1)"><path fill="none" stroke="#000000" d="M 815.5 196 L 815.5 794" stroke-miterlimit="10" stroke-dasharray="3"/></g><g transform="translate(10,10) scale(1,1)"><path fill="#000000" stroke="none" d="M 16 519.5 C 16 515.6340064 19.1340064 512.5 23 512.5 C 26.8659936 512.5 30 515.6340064 30 519.5 C 30 523.3659936 26.8659936 526.5 23 526.5 C 19.1340064 526.5 16 523.3659936 16 519.5 Z"/></g><g transform="translate(10,10) scale(1,1)"><rect fill="#C0C0C0" stroke="none" x="943" y="283" width="235.0361328125" height="39" opacity="0.2"/></g><g transform="translate(10,10) scale(1,1)"><rect fill="#ffffff" stroke="none" x="936" y="276" width="235.0361328125" height="39"/></g><g transform="translate(10,10) scale(1,1)"><path fill="none" stroke="#000000" d="M 936 276 L 1171.0361328125 276 L 1171.0361328125 315 L 936 315 L 936 276 Z Z" stroke-miterlimit="10"/></g><g transform="translate(10,10) scale(1,1)"><g><path fill="none" stroke="none"/><text fill="#000000" stroke="none" font-family="Arial" font-size="13px" font-weight="bold" text-decoration="none" x="945.5" y="293.5">cpTracker: BoatCheckPointTracker</text></g></g><g transform="translate(10,10) scale(1,1)"><path fill="none" stroke="#000000" d="M 1054.5 316 L 1054.5 886" stroke-miterlimit="10" stroke-dasharray="3"/></g><g transform="translate(10,10) scale(1,1)"><rect fill="#C0C0C0" stroke="none" x="1511" y="47" width="150.47265625" height="39" opacity="0.2"/></g><g transform="translate(10,10) scale(1,1)"><rect fill="#ffffff" stroke="none" x="1504" y="40" width="150.47265625" height="39"/></g><g transform="translate(10,10) scale(1,1)"><path fill="none" stroke="#000000" d="M 1504 40 L 1654.47265625 40 L 1654.47265625 79 L 1504 79 L 1504 40 Z Z" stroke-miterlimit="10"/></g><g transform="translate(10,10) scale(1,1)"><g><path fill="none" stroke="none"/><text fill="#000000" stroke="none" font-family="Arial" font-size="13px" font-weight="bold" text-decoration="none" x="1513.5" y="57.5">_nextCP: CheckPoint</text></g></g><g transform="translate(10,10) scale(1,1)"><path fill="none" stroke="#000000" d="M 1580.5 80 L 1580.5 690" stroke-miterlimit="10" stroke-dasharray="3"/></g><g transform="translate(10,10) scale(1,1)"><path fill="none" stroke="#000000" d="M 110 120 L 520 120" stroke-miterlimit="10" stroke-dasharray="3"/></g><g transform="translate(10,10) scale(1,1)"><path fill="none" stroke="#000000" d="M 509.83732514237585 124.20951775601598 L 520 120 L 509.83732514237585 115.79048224398402" stroke-miterlimit="10"/></g><g transform="translate(10,10) scale(1,1)"><g><path fill="none" stroke="none"/><text fill="#000000" stroke="none" font-family="Arial" font-size="13px" text-decoration="none" x="120.5" y="114.5">1 : RaceManager(playerName: String, board: Board, boat: Sailboat)</text></g></g><g transform="translate(10,10) scale(1,1)"><g><path fill="none" stroke="none"/><text fill="#000000" stroke="none" font-family="Arial" font-size="13px" text-decoration="none" x="289.5" y="99.5">«create»</text></g></g><g transform="translate(10,10) scale(1,1)"><path fill="none" stroke="#000000" d="M 585 176 L 768 176" stroke-miterlimit="10" stroke-dasharray="3"/></g><g transform="translate(10,10) scale(1,1)"><path fill="none" stroke="#000000" d="M 757.8373251423759 180.209517756016 L 768 176 L 757.8373251423758 171.790482243984" stroke-miterlimit="10"/></g><g transform="translate(10,10) scale(1,1)"><g><path fill="none" stroke="none"/><text fill="#000000" stroke="none" font-family="Arial" font-size="13px" text-decoration="none" x="666.5" y="170.5">2 : </text></g></g><g transform="translate(10,10) scale(1,1)"><g><path fill="none" stroke="none"/><text fill="#000000" stroke="none" font-family="Arial" font-size="13px" text-decoration="none" x="650.5" y="155.5">«create»</text></g></g><g transform="translate(10,10) scale(1,1)"><path fill="none" stroke="#000000" d="M 585 232 L 1412 232" stroke-miterlimit="10"/></g><g transform="translate(10,10) scale(1,1)"><path fill="#000000" stroke="none" d="M 1401.837325142376 236.209517756016 L 1412 232 L 1401.837325142376 227.790482243984"/></g><g transform="translate(10,10) scale(1,1)"><path fill="none" stroke="#000000" d="M 1401.837325142376 236.209517756016 L 1412 232 L 1401.837325142376 227.790482243984 L 1401.837325142376 236.209517756016" stroke-miterlimit="10"/></g><g transform="translate(10,10) scale(1,1)"><g><path fill="none" stroke="none"/><text fill="#000000" stroke="none" font-family="Arial" font-size="13px" text-decoration="none" x="884.5" y="226.5">3 : getCheckpoints():CheckPointIterator</text></g></g><g transform="translate(10,10) scale(1,1)"><rect fill="#ffffff" stroke="none" x="1412" y="232" width="13" height="28"/></g><g transform="translate(10,10) scale(1,1)"><path fill="none" stroke="#000000" d="M 1412 232 L 1425 232 L 1425 260 L 1412 260 L 1412 232 Z Z" stroke-miterlimit="10"/></g><g transform="translate(10,10) scale(1,1)"><path fill="none" stroke="#000000" d="M 1412 252 L 585 252" stroke-miterlimit="10" stroke-dasharray="3"/></g><g transform="translate(10,10) scale(1,1)"><path fill="none" stroke="#000000" d="M 595.1626748576241 247.790482243984 L 585 252 L 595.1626748576241 256.209517756016" stroke-miterlimit="10"/></g><g transform="translate(10,10) scale(1,1)"><g><path fill="none" stroke="none"/><text fill="#000000" stroke="none" font-family="Arial" font-size="13px" text-decoration="none" x="944.5" y="266.5">4 : firstCheckPoint</text></g></g><g transform="translate(10,10) scale(1,1)"><path fill="none" stroke="#000000" d="M 585 296 L 936 296" stroke-miterlimit="10" stroke-dasharray="3"/></g><g transform="translate(10,10) scale(1,1)"><path fill="none" stroke="#000000" d="M 925.8373251423759 300.209517756016 L 936 296 L 925.8373251423758 291.790482243984" stroke-miterlimit="10"/></g><g transform="translate(10,10) scale(1,1)"><g><path fill="none" stroke="none"/><text fill="#000000" stroke="none" font-family="Arial" font-size="13px" text-decoration="none" x="599.818603515625" y="290.5">5 : BoatCheckPointTracker(playerBoat, firstCheckPoint)</text></g></g><g transform="translate(10,10) scale(1,1)"><g><path fill="none" stroke="none"/><text fill="#000000" stroke="none" font-family="Arial" font-size="13px" text-decoration="none" x="734.5" y="275.5">«create»</text></g></g><g transform="translate(10,10) scale(1,1)"><path fill="none" stroke="#000000" d="M 1054 344 L 1234 344" stroke-miterlimit="10"/></g><g transform="translate(10,10) scale(1,1)"><path fill="#000000" stroke="none" d="M 1223.837325142376 348.209517756016 L 1234 344 L 1223.837325142376 339.790482243984"/></g><g transform="translate(10,10) scale(1,1)"><path fill="none" stroke="#000000" d="M 1223.837325142376 348.209517756016 L 1234 344 L 1223.837325142376 339.790482243984 L 1223.837325142376 348.209517756016" stroke-miterlimit="10"/></g><g transform="translate(10,10) scale(1,1)"><g><path fill="none" stroke="none"/><text fill="#000000" stroke="none" font-family="Arial" font-size="13px" text-decoration="none" x="1050.091796875" y="338.5">6 : observe(o: SailboatObserver)</text></g></g><g transform="translate(10,10) scale(1,1)"><rect fill="#ffffff" stroke="none" x="1234" y="344" width="13" height="28"/></g><g transform="translate(10,10) scale(1,1)"><path fill="none" stroke="#000000" d="M 1234 344 L 1247 344 L 1247 372 L 1234 372 L 1234 344 Z Z" stroke-miterlimit="10"/></g><g transform="translate(10,10) scale(1,1)"><path fill="none" stroke="#000000" d="M 110 408 L 1234 408" stroke-miterlimit="10"/></g><g transform="translate(10,10) scale(1,1)"><path fill="#000000" stroke="none" d="M 1223.837325142376 412.209517756016 L 1234 408 L 1223.837325142376 403.790482243984"/></g><g transform="translate(10,10) scale(1,1)"><path fill="none" stroke="#000000" d="M 1223.837325142376 412.209517756016 L 1234 408 L 1223.837325142376 403.790482243984 L 1223.837325142376 412.209517756016" stroke-miterlimit="10"/></g><g transform="translate(10,10) scale(1,1)"><g><path fill="none" stroke="none"/><text fill="#000000" stroke="none" font-family="Arial" font-size="13px" text-decoration="none" x="577.706787109375" y="402.5">7 : observe(o: SailboatObserver)</text></g></g><g transform="translate(10,10) scale(1,1)"><rect fill="#ffffff" stroke="none" x="1234" y="408" width="13" height="28"/></g><g transform="translate(10,10) scale(1,1)"><path fill="none" stroke="#000000" d="M 1234 408 L 1247 408 L 1247 436 L 1234 436 L 1234 408 Z Z" stroke-miterlimit="10"/></g><g transform="translate(10,10) scale(1,1)"><path fill="none" stroke="#000000" d="M 110 464 L 578 464" stroke-miterlimit="10"/></g><g transform="translate(10,10) scale(1,1)"><path fill="#000000" stroke="none" d="M 567.8373251423759 468.209517756016 L 578 464 L 567.8373251423758 459.790482243984"/></g><g transform="translate(10,10) scale(1,1)"><path fill="none" stroke="#000000" d="M 567.8373251423759 468.209517756016 L 578 464 L 567.8373251423758 459.790482243984 L 567.8373251423759 468.209517756016" stroke-miterlimit="10"/></g><g transform="translate(10,10) scale(1,1)"><g><path fill="none" stroke="none"/><text fill="#000000" stroke="none" font-family="Arial" font-size="13px" text-decoration="none" x="303.114990234375" y="458.5">8 : startRace()</text></g></g><g transform="translate(10,10) scale(1,1)"><rect fill="#ffffff" stroke="none" x="578" y="464" width="13" height="251"/></g><g transform="translate(10,10) scale(1,1)"><path fill="none" stroke="#000000" d="M 578 464 L 591 464 L 591 715 L 578 715 L 578 464 Z Z" stroke-miterlimit="10"/></g><g transform="translate(10,10) scale(1,1)"><path fill="none" stroke="#000000" d="M 591 480 L 808 480" stroke-miterlimit="10"/></g><g transform="translate(10,10) scale(1,1)"><path fill="#000000" stroke="none" d="M 797.8373251423759 484.209517756016 L 808 480 L 797.8373251423758 475.790482243984"/></g><g transform="translate(10,10) scale(1,1)"><path fill="none" stroke="#000000" d="M 797.8373251423759 484.209517756016 L 808 480 L 797.8373251423758 475.790482243984 L 797.8373251423759 484.209517756016" stroke-miterlimit="10"/></g><g transform="translate(10,10) scale(1,1)"><g><path fill="none" stroke="none"/><text fill="#000000" stroke="none" font-family="Arial" font-size="13px" text-decoration="none" x="672.51904296875" y="474.5">9 : start()</text></g></g><g transform="translate(10,10) scale(1,1)"><rect fill="#ffffff" stroke="none" x="808" y="480" width="13" height="28"/></g><g transform="translate(10,10) scale(1,1)"><path fill="none" stroke="#000000" d="M 808 480 L 821 480 L 821 508 L 808 508 L 808 480 Z Z" stroke-miterlimit="10"/></g><g transform="translate(10,10) scale(1,1)"><path fill="none" stroke="#000000" d="M 30 520 L 103 520" stroke-miterlimit="10"/></g><g transform="translate(10,10) scale(1,1)"><path fill="#000000" stroke="none" d="M 92.83732514237585 524.209517756016 L 103 520 L 92.83732514237585 515.790482243984"/></g><g transform="translate(10,10) scale(1,1)"><path fill="none" stroke="#000000" d="M 92.83732514237585 524.209517756016 L 103 520 L 92.83732514237585 515.790482243984 L 92.83732514237585 524.209517756016" stroke-miterlimit="10"/></g><g transform="translate(10,10) scale(1,1)"><g><path fill="none" stroke="none"/><text fill="#000000" stroke="none" font-family="Arial" font-size="13px" text-decoration="none" x="14.5" y="505.5">10 : gameLoop</text></g></g><g transform="translate(10,10) scale(1,1)"><rect fill="#ffffff" stroke="none" x="103" y="520" width="13" height="360"/></g><g transform="translate(10,10) scale(1,1)"><path fill="none" stroke="#000000" d="M 103 520 L 116 520 L 116 880 L 103 880 L 103 520 Z Z" stroke-miterlimit="10"/></g><g transform="translate(10,10) scale(1,1)"><path fill="none" stroke="#000000" d="M 116 544 L 585 544" stroke-miterlimit="10"/></g><g transform="translate(10,10) scale(1,1)"><path fill="#000000" stroke="none" d="M 574.8373251423759 548.209517756016 L 585 544 L 574.8373251423758 539.790482243984"/></g><g transform="translate(10,10) scale(1,1)"><path fill="none" stroke="#000000" d="M 574.8373251423759 548.209517756016 L 585 544 L 574.8373251423758 539.790482243984 L 574.8373251423759 548.209517756016" stroke-miterlimit="10"/></g><g transform="translate(10,10) scale(1,1)"><g><path fill="none" stroke="none"/><text fill="#000000" stroke="none" font-family="Arial" font-size="13px" text-decoration="none" x="303.982421875" y="538.5">11 : moveBoat()</text></g></g><g transform="translate(10,10) scale(1,1)"><rect fill="#ffffff" stroke="none" x="585" y="544" width="13" height="168"/></g><g transform="translate(10,10) scale(1,1)"><path fill="none" stroke="#000000" d="M 585 544 L 598 544 L 598 712 L 585 712 L 585 544 Z Z" stroke-miterlimit="10"/></g><g transform="translate(10,10) scale(1,1)"><path fill="none" stroke="#000000" d="M 598 552 L 1234 552" stroke-miterlimit="10"/></g><g transform="translate(10,10) scale(1,1)"><path fill="#000000" stroke="none" d="M 1223.837325142376 556.209517756016 L 1234 552 L 1223.837325142376 547.790482243984"/></g><g transform="translate(10,10) scale(1,1)"><path fill="none" stroke="#000000" d="M 1223.837325142376 556.209517756016 L 1234 552 L 1223.837325142376 547.790482243984 L 1223.837325142376 556.209517756016" stroke-miterlimit="10"/></g><g transform="translate(10,10) scale(1,1)"><g><path fill="none" stroke="none"/><text fill="#000000" stroke="none" font-family="Arial" font-size="13px" text-decoration="none" x="882.65087890625" y="546.5">12 : move()</text></g></g><g transform="translate(10,10) scale(1,1)"><rect fill="#ffffff" stroke="none" x="1234" y="552" width="13" height="136"/></g><g transform="translate(10,10) scale(1,1)"><path fill="none" stroke="#000000" d="M 1234 552 L 1247 552 L 1247 688 L 1234 688 L 1234 552 Z Z" stroke-miterlimit="10"/></g><g transform="translate(10,10) scale(1,1)"><path fill="none" stroke="#000000" d="M 1247 568 L 1277 568 L 1277 588 L 1254 588" stroke-miterlimit="10"/></g><g transform="translate(10,10) scale(1,1)"><path fill="#000000" stroke="none" d="M 1264.162674857624 583.790482243984 L 1254 588 L 1264.162674857624 592.209517756016"/></g><g transform="translate(10,10) scale(1,1)"><path fill="none" stroke="#000000" d="M 1264.162674857624 583.790482243984 L 1254 588 L 1264.162674857624 592.209517756016 L 1264.162674857624 583.790482243984" stroke-miterlimit="10"/></g><g transform="translate(10,10) scale(1,1)"><g><path fill="none" stroke="none"/><text fill="#000000" stroke="none" font-family="Arial" font-size="13px" text-decoration="none" x="1253.757080078125" y="581.5">13 : notify()</text></g></g><g transform="translate(10,10) scale(1,1)"><rect fill="#ffffff" stroke="none" x="1241" y="588" width="13" height="84"/></g><g transform="translate(10,10) scale(1,1)"><path fill="none" stroke="#000000" d="M 1241 588 L 1254 588 L 1254 672 L 1241 672 L 1241 588 Z Z" stroke-miterlimit="10"/></g><g transform="translate(10,10) scale(1,1)"><path fill="none" stroke="#000000" d="M 1241 600 L 1060 600" stroke-miterlimit="10"/></g><g transform="translate(10,10) scale(1,1)"><path fill="#000000" stroke="none" d="M 1070.162674857624 595.790482243984 L 1060 600 L 1070.162674857624 604.209517756016"/></g><g transform="translate(10,10) scale(1,1)"><path fill="none" stroke="#000000" d="M 1070.162674857624 595.790482243984 L 1060 600 L 1070.162674857624 604.209517756016 L 1070.162674857624 595.790482243984" stroke-miterlimit="10"/></g><g transform="translate(10,10) scale(1,1)"><g><path fill="none" stroke="none"/><text fill="#000000" stroke="none" font-family="Arial" font-size="13px" text-decoration="none" x="1060.5" y="614.5">14 : update(changed: Sailboat)</text></g></g><g transform="translate(10,10) scale(1,1)"><rect fill="#ffffff" stroke="none" x="1047" y="600" width="13" height="72"/></g><g transform="translate(10,10) scale(1,1)"><path fill="none" stroke="#000000" d="M 1047 600 L 1060 600 L 1060 672 L 1047 672 L 1047 600 Z Z" stroke-miterlimit="10"/></g><g transform="translate(10,10) scale(1,1)"><path fill="none" stroke="#000000" d="M 1060 640 L 1573 640" stroke-miterlimit="10"/></g><g transform="translate(10,10) scale(1,1)"><path fill="#000000" stroke="none" d="M 1562.837325142376 644.209517756016 L 1573 640 L 1562.837325142376 635.790482243984"/></g><g transform="translate(10,10) scale(1,1)"><path fill="none" stroke="#000000" d="M 1562.837325142376 644.209517756016 L 1573 640 L 1562.837325142376 635.790482243984 L 1562.837325142376 644.209517756016" stroke-miterlimit="10"/></g><g transform="translate(10,10) scale(1,1)"><g><path fill="none" stroke="none"/><text fill="#000000" stroke="none" font-family="Arial" font-size="13px" text-decoration="none" x="1259.29443359375" y="633.5">15 : Message13</text></g></g><g transform="translate(10,10) scale(1,1)"><rect fill="#ffffff" stroke="none" x="1573" y="640" width="13" height="28"/></g><g transform="translate(10,10) scale(1,1)"><path fill="none" stroke="#000000" d="M 1573 640 L 1586 640 L 1586 668 L 1573 668 L 1573 640 Z Z" stroke-miterlimit="10"/></g><g transform="translate(10,10) scale(1,1)"><path fill="none" stroke="#000000" d="M 1573 660 L 1060 660" stroke-miterlimit="10" stroke-dasharray="3"/></g><g transform="translate(10,10) scale(1,1)"><path fill="none" stroke="#000000" d="M 1070.162674857624 655.790482243984 L 1060 660 L 1070.162674857624 664.209517756016" stroke-miterlimit="10"/></g><g transform="translate(10,10) scale(1,1)"><g><path fill="none" stroke="none"/><text fill="#000000" stroke="none" font-family="Arial" font-size="13px" text-decoration="none" x="1288.37451171875" y="674.5">16 : false</text></g></g><g transform="translate(10,10) scale(1,1)"><path fill="none" stroke="#000000" d="M 598 688 L 1047 688" stroke-miterlimit="10"/></g><g transform="translate(10,10) scale(1,1)"><path fill="#000000" stroke="none" d="M 1036.837325142376 692.209517756016 L 1047 688 L 1036.837325142376 683.790482243984"/></g><g transform="translate(10,10) scale(1,1)"><path fill="none" stroke="#000000" d="M 1036.837325142376 692.209517756016 L 1047 688 L 1036.837325142376 683.790482243984 L 1036.837325142376 692.209517756016" stroke-miterlimit="10"/></g><g transform="translate(10,10) scale(1,1)"><g><path fill="none" stroke="none"/><text fill="#000000" stroke="none" font-family="Arial" font-size="13px" text-decoration="none" x="750.5" y="682.5">17 : isFinished():boolean</text></g></g><g transform="translate(10,10) scale(1,1)"><rect fill="#ffffff" stroke="none" x="1047" y="688" width="13" height="28"/></g><g transform="translate(10,10) scale(1,1)"><path fill="none" stroke="#000000" d="M 1047 688 L 1060 688 L 1060 716 L 1047 716 L 1047 688 Z Z" stroke-miterlimit="10"/></g><g transform="translate(10,10) scale(1,1)"><path fill="none" stroke="#000000" d="M 1047 708 L 598 708" stroke-miterlimit="10" stroke-dasharray="3"/></g><g transform="translate(10,10) scale(1,1)"><path fill="none" stroke="#000000" d="M 608.1626748576241 703.790482243984 L 598 708 L 608.1626748576241 712.209517756016" stroke-miterlimit="10"/></g><g transform="translate(10,10) scale(1,1)"><g><path fill="none" stroke="none"/><text fill="#000000" stroke="none" font-family="Arial" font-size="13px" text-decoration="none" x="794.37451171875" y="722.5">18 : false</text></g></g><g transform="translate(10,10) scale(1,1)"><path fill="none" stroke="#000000" d="M 116 736 L 578 736" stroke-miterlimit="10"/></g><g transform="translate(10,10) scale(1,1)"><path fill="#000000" stroke="none" d="M 567.8373251423759 740.209517756016 L 578 736 L 567.8373251423758 731.790482243984"/></g><g transform="translate(10,10) scale(1,1)"><path fill="none" stroke="#000000" d="M 567.8373251423759 740.209517756016 L 578 736 L 567.8373251423758 731.790482243984 L 567.8373251423759 740.209517756016" stroke-miterlimit="10"/></g><g transform="translate(10,10) scale(1,1)"><g><path fill="none" stroke="none"/><text fill="#000000" stroke="none" font-family="Arial" font-size="13px" text-decoration="none" x="292.61572265625" y="730.5">19 : getTime():long</text></g></g><g transform="translate(10,10) scale(1,1)"><rect fill="#ffffff" stroke="none" x="578" y="736" width="13" height="40"/></g><g transform="translate(10,10) scale(1,1)"><path fill="none" stroke="#000000" d="M 578 736 L 591 736 L 591 776 L 578 776 L 578 736 Z Z" stroke-miterlimit="10"/></g><g transform="translate(10,10) scale(1,1)"><path fill="none" stroke="#000000" d="M 591 744 L 808 744" stroke-miterlimit="10"/></g><g transform="translate(10,10) scale(1,1)"><path fill="#000000" stroke="none" d="M 797.8373251423759 748.209517756016 L 808 744 L 797.8373251423758 739.790482243984"/></g><g transform="translate(10,10) scale(1,1)"><path fill="none" stroke="#000000" d="M 797.8373251423759 748.209517756016 L 808 744 L 797.8373251423758 739.790482243984 L 797.8373251423759 748.209517756016" stroke-miterlimit="10"/></g><g transform="translate(10,10) scale(1,1)"><g><path fill="none" stroke="none"/><text fill="#000000" stroke="none" font-family="Arial" font-size="13px" text-decoration="none" x="644.5" y="738.5">20 : getTime():long</text></g></g><g transform="translate(10,10) scale(1,1)"><rect fill="#ffffff" stroke="none" x="808" y="744" width="13" height="28"/></g><g transform="translate(10,10) scale(1,1)"><path fill="none" stroke="#000000" d="M 808 744 L 821 744 L 821 772 L 808 772 L 808 744 Z Z" stroke-miterlimit="10"/></g><g transform="translate(10,10) scale(1,1)"><path fill="none" stroke="#000000" d="M 808 764 L 591 764" stroke-miterlimit="10" stroke-dasharray="3"/></g><g transform="translate(10,10) scale(1,1)"><path fill="none" stroke="#000000" d="M 601.1626748576241 759.790482243984 L 591 764 L 601.1626748576241 768.209517756016" stroke-miterlimit="10"/></g><g transform="translate(10,10) scale(1,1)"><g><path fill="none" stroke="none"/><text fill="#000000" stroke="none" font-family="Arial" font-size="13px" text-decoration="none" x="672.824951171875" y="778.5">21 : time</text></g></g><g transform="translate(10,10) scale(1,1)"><path fill="none" stroke="#000000" d="M 585 776 L 116 776" stroke-miterlimit="10" stroke-dasharray="3"/></g><g transform="translate(10,10) scale(1,1)"><path fill="none" stroke="#000000" d="M 126.16267485762415 771.790482243984 L 116 776 L 126.16267485762415 780.209517756016" stroke-miterlimit="10"/></g><g transform="translate(10,10) scale(1,1)"><g><path fill="none" stroke="none"/><text fill="#000000" stroke="none" font-family="Arial" font-size="13px" text-decoration="none" x="324.2099609375" y="790.5">22 : time</text></g></g><g transform="translate(10,10) scale(1,1)"><path fill="none" stroke="#000000" d="M 116 816 L 578 816" stroke-miterlimit="10"/></g><g transform="translate(10,10) scale(1,1)"><path fill="#000000" stroke="none" d="M 567.8373251423759 820.209517756016 L 578 816 L 567.8373251423758 811.790482243984"/></g><g transform="translate(10,10) scale(1,1)"><path fill="none" stroke="#000000" d="M 567.8373251423759 820.209517756016 L 578 816 L 567.8373251423758 811.790482243984 L 567.8373251423759 820.209517756016" stroke-miterlimit="10"/></g><g transform="translate(10,10) scale(1,1)"><g><path fill="none" stroke="none"/><text fill="#000000" stroke="none" font-family="Arial" font-size="13px" text-decoration="none" x="275.5" y="810.5">23 : isFinished():boolean</text></g></g><g transform="translate(10,10) scale(1,1)"><rect fill="#ffffff" stroke="none" x="578" y="816" width="13" height="56"/></g><g transform="translate(10,10) scale(1,1)"><path fill="none" stroke="#000000" d="M 578 816 L 591 816 L 591 872 L 578 872 L 578 816 Z Z" stroke-miterlimit="10"/></g><g transform="translate(10,10) scale(1,1)"><path fill="none" stroke="#000000" d="M 591 832 L 1047 832" stroke-miterlimit="10"/></g><g transform="translate(10,10) scale(1,1)"><path fill="#000000" stroke="none" d="M 1036.837325142376 836.209517756016 L 1047 832 L 1036.837325142376 827.790482243984"/></g><g transform="translate(10,10) scale(1,1)"><path fill="none" stroke="#000000" d="M 1036.837325142376 836.209517756016 L 1047 832 L 1036.837325142376 827.790482243984 L 1036.837325142376 836.209517756016" stroke-miterlimit="10"/></g><g transform="translate(10,10) scale(1,1)"><g><path fill="none" stroke="none"/><text fill="#000000" stroke="none" font-family="Arial" font-size="13px" text-decoration="none" x="747.5" y="826.5">24 : isFinished():boolean</text></g></g><g transform="translate(10,10) scale(1,1)"><rect fill="#ffffff" stroke="none" x="1047" y="832" width="13" height="28"/></g><g transform="translate(10,10) scale(1,1)"><path fill="none" stroke="#000000" d="M 1047 832 L 1060 832 L 1060 860 L 1047 860 L 1047 832 Z Z" stroke-miterlimit="10"/></g><g transform="translate(10,10) scale(1,1)"><path fill="none" stroke="#000000" d="M 1047 856 L 591 856" stroke-miterlimit="10" stroke-dasharray="3"/></g><g transform="translate(10,10) scale(1,1)"><path fill="none" stroke="#000000" d="M 601.1626748576241 851.790482243984 L 591 856 L 601.1626748576241 860.209517756016" stroke-miterlimit="10"/></g><g transform="translate(10,10) scale(1,1)"><g><path fill="none" stroke="none"/><text fill="#000000" stroke="none" font-family="Arial" font-size="13px" text-decoration="none" x="791.89208984375" y="870.5">25 : false</text></g></g><g transform="translate(10,10) scale(1,1)"><path fill="none" stroke="#000000" d="M 578 864 L 116 864" stroke-miterlimit="10" stroke-dasharray="3"/></g><g transform="translate(10,10) scale(1,1)"><path fill="none" stroke="#000000" d="M 126.16267485762415 859.790482243984 L 116 864 L 126.16267485762415 868.209517756016" stroke-miterlimit="10"/></g><g transform="translate(10,10) scale(1,1)"><g><path fill="none" stroke="none"/><text fill="#000000" stroke="none" font-family="Arial" font-size="13px" text-decoration="none" x="319.759521484375" y="878.5">26 : false</text></g></g></g></svg>