<svg version="1.1" xmlns="http://www.w3.org/2000/svg" width="1716" height="820"  style="background-color:white;"><defs/><g><g transform="translate(-22,-22) scale(1,1)"><path fill="none" stroke="#000000" d="M 32 32 L 1728 32 L 1728 832 L 32 832 L 32 32" stroke-miterlimit="10"/></g><g transform="translate(-22,-22) scale(1,1)"><path fill="#ffffff" stroke="none" d="M 32 32 L 32 54 L 230.83154296875 54 L 241.83154296875 43 L 241.83154296875 32 L 32 32"/></g><g transform="translate(-22,-22) scale(1,1)"><path fill="none" stroke="#000000" d="M 32 32 L 32 54 L 230.83154296875 54 L 241.83154296875 43 L 241.83154296875 32 L 32 32 L 32 32" stroke-miterlimit="10"/></g><g transform="translate(-22,-22) scale(1,1)"><g><path fill="none" stroke="none"/><text fill="#000000" stroke="none" font-family="Arial" font-size="13px" text-decoration="none" x="56.72998046875" y="47.5">sailboat movement sequence</text></g></g><g transform="translate(-22,-22) scale(1,1)"><g><path fill="none" stroke="none"/><text fill="#000000" stroke="none" font-family="Arial" font-size="13px" font-weight="bold" text-decoration="none" x="36.279541015625" y="47.5">sd</text></g></g><g transform="translate(-22,-22) scale(1,1)"><rect fill="#C0C0C0" stroke="none" x="255" y="47" width="169.28076171875" height="39" opacity="0.2"/></g><g transform="translate(-22,-22) scale(1,1)"><path fill="none" stroke="#000000" d="M 253 45 L 422.28076171875 45 L 422.28076171875 84 L 253 84 L 253 45 Z Z" stroke-miterlimit="10"/></g><g transform="translate(-22,-22) scale(1,1)"><rect fill="#ffffff" stroke="none" x="248" y="40" width="169.28076171875" height="39"/></g><g transform="translate(-22,-22) scale(1,1)"><path fill="none" stroke="#000000" d="M 248 40 L 417.28076171875 40 L 417.28076171875 79 L 248 79 L 248 40 Z Z" stroke-miterlimit="10"/></g><g transform="translate(-22,-22) scale(1,1)"><g><path fill="none" stroke="none"/><text fill="#000000" stroke="none" font-family="Arial" font-size="13px" font-weight="bold" text-decoration="none" x="270.871337890625" y="57.5">o: SailboatObserver</text></g></g><g transform="translate(-22,-22) scale(1,1)"><path fill="none" stroke="#000000" d="M 333.5 80 L 333.5 808" stroke-miterlimit="10" stroke-dasharray="3"/></g><g transform="translate(-22,-22) scale(1,1)"><rect fill="#C0C0C0" stroke="none" x="439" y="47" width="219.16064453125" height="39" opacity="0.2"/></g><g transform="translate(-22,-22) scale(1,1)"><rect fill="#ffffff" stroke="none" x="432" y="40" width="219.16064453125" height="39"/></g><g transform="translate(-22,-22) scale(1,1)"><path fill="none" stroke="#000000" d="M 432 40 L 651.16064453125 40 L 651.16064453125 79 L 432 79 L 432 40 Z Z" stroke-miterlimit="10"/></g><g transform="translate(-22,-22) scale(1,1)"><g><path fill="none" stroke="none"/><text fill="#000000" stroke="none" font-family="Arial" font-size="13px" font-weight="bold" text-decoration="none" x="481.614013671875" y="57.5">gp: GamePresenter</text></g></g><g transform="translate(-22,-22) scale(1,1)"><path fill="none" stroke="#000000" d="M 542.5 80 L 542.5 810" stroke-miterlimit="10" stroke-dasharray="3"/></g><g transform="translate(-22,-22) scale(1,1)"><rect fill="#C0C0C0" stroke="none" x="863" y="47" width="145.42626953125" height="39" opacity="0.2"/></g><g transform="translate(-22,-22) scale(1,1)"><rect fill="#ffffff" stroke="none" x="856" y="40" width="145.42626953125" height="39"/></g><g transform="translate(-22,-22) scale(1,1)"><path fill="none" stroke="#000000" d="M 856 40 L 1001.42626953125 40 L 1001.42626953125 79 L 856 79 L 856 40 Z Z" stroke-miterlimit="10"/></g><g transform="translate(-22,-22) scale(1,1)"><g><path fill="none" stroke="none"/><text fill="#000000" stroke="none" font-family="Arial" font-size="13px" font-weight="bold" text-decoration="none" x="865.864990234375" y="57.5">playerBoat: Sailboat</text></g></g><g transform="translate(-22,-22) scale(1,1)"><path fill="none" stroke="#000000" d="M 929.5 80 L 929.5 808" stroke-miterlimit="10" stroke-dasharray="3"/></g><g transform="translate(-22,-22) scale(1,1)"><rect fill="#C0C0C0" stroke="none" x="1087" y="47" width="196.6962890625" height="39" opacity="0.2"/></g><g transform="translate(-22,-22) scale(1,1)"><rect fill="#ffffff" stroke="none" x="1080" y="40" width="196.6962890625" height="39"/></g><g transform="translate(-22,-22) scale(1,1)"><path fill="none" stroke="#000000" d="M 1080 40 L 1276.6962890625 40 L 1276.6962890625 79 L 1080 79 L 1080 40 Z Z" stroke-miterlimit="10"/></g><g transform="translate(-22,-22) scale(1,1)"><g><path fill="none" stroke="none"/><text fill="#000000" stroke="none" font-family="Arial" font-size="13px" font-weight="bold" text-decoration="none" x="1090.2236328125" y="57.5">boatNav: SailboatNavigation</text></g></g><g transform="translate(-22,-22) scale(1,1)"><path fill="none" stroke="#000000" d="M 1179.5 80 L 1179.5 800" stroke-miterlimit="10" stroke-dasharray="3"/></g><g transform="translate(-22,-22) scale(1,1)"><g><path fill="none" stroke="none"/><text fill="#000000" stroke="none" font-family="Arial" font-size="13px" text-decoration="none" x="45" y="78">Game running and</text><text fill="#000000" stroke="none" font-family="Arial" font-size="13px" text-decoration="none" x="45" y="91">the boat move</text><text fill="#000000" stroke="none" font-family="Arial" font-size="13px" text-decoration="none" x="45" y="104">forward</text></g></g><g transform="translate(-22,-22) scale(1,1)"><rect fill="#C0C0C0" stroke="none" x="1551" y="47" width="100.61181640625" height="39" opacity="0.2"/></g><g transform="translate(-22,-22) scale(1,1)"><rect fill="#ffffff" stroke="none" x="1544" y="40" width="100.61181640625" height="39"/></g><g transform="translate(-22,-22) scale(1,1)"><path fill="none" stroke="#000000" d="M 1544 40 L 1644.61181640625 40 L 1644.61181640625 79 L 1544 79 L 1544 40 Z Z" stroke-miterlimit="10"/></g><g transform="translate(-22,-22) scale(1,1)"><g><path fill="none" stroke="none"/><text fill="#000000" stroke="none" font-family="Arial" font-size="13px" font-weight="bold" text-decoration="none" x="1553.5" y="57.5">board: Board</text></g></g><g transform="translate(-22,-22) scale(1,1)"><path fill="none" stroke="#000000" d="M 1595.5 80 L 1595.5 808" stroke-miterlimit="10" stroke-dasharray="3"/></g><g transform="translate(-22,-22) scale(1,1)"><path fill="#ffffff" stroke="none" d="M 952 424 L 1157 424 L 1167 434 L 1167 460 L 952 460 L 952 424"/></g><g transform="translate(-22,-22) scale(1,1)"><path fill="none" stroke="#000000" d="M 952 424 L 1157 424 L 1167 434 L 1167 460 L 952 460 L 952 424 L 952 424" stroke-miterlimit="10"/></g><g transform="translate(-22,-22) scale(1,1)"><path fill="none" stroke="#000000" d="M 1157 424 L 1157 434 L 1167 434 L 1157 424" stroke-miterlimit="10"/></g><g transform="translate(-22,-22) scale(1,1)"><g><path fill="none" stroke="none"/><text fill="#000000" stroke="none" font-family="Arial" font-size="13px" text-decoration="none" x="957" y="438">step = f(curSpeed, curPos) →</text><text fill="#000000" stroke="none" font-family="Arial" font-size="13px" text-decoration="none" x="957" y="451">newSpeed, newPos</text></g></g><g transform="translate(-22,-22) scale(1,1)"><rect fill="#C0C0C0" stroke="none" x="703" y="47" width="131.6962890625" height="39" opacity="0.2"/></g><g transform="translate(-22,-22) scale(1,1)"><rect fill="#ffffff" stroke="none" x="696" y="40" width="131.6962890625" height="39"/></g><g transform="translate(-22,-22) scale(1,1)"><path fill="none" stroke="#000000" d="M 696 40 L 827.6962890625 40 L 827.6962890625 79 L 696 79 L 696 40 Z Z" stroke-miterlimit="10"/></g><g transform="translate(-22,-22) scale(1,1)"><g><path fill="none" stroke="none"/><text fill="#000000" stroke="none" font-family="Arial" font-size="13px" font-weight="bold" text-decoration="none" x="707.299560546875" y="57.5">rm: RaceManager</text></g></g><g transform="translate(-22,-22) scale(1,1)"><path fill="none" stroke="#000000" d="M 762.5 80 L 762.5 810" stroke-miterlimit="10" stroke-dasharray="3"/></g><g transform="translate(-22,-22) scale(1,1)"><rect fill="#C0C0C0" stroke="none" x="1335" y="47" width="193.09716796875" height="39" opacity="0.2"/></g><g transform="translate(-22,-22) scale(1,1)"><rect fill="#ffffff" stroke="none" x="1328" y="40" width="193.09716796875" height="39"/></g><g transform="translate(-22,-22) scale(1,1)"><path fill="none" stroke="#000000" d="M 1328 40 L 1521.09716796875 40 L 1521.09716796875 79 L 1328 79 L 1328 40 Z Z" stroke-miterlimit="10"/></g><g transform="translate(-22,-22) scale(1,1)"><g><path fill="none" stroke="none"/><text fill="#000000" stroke="none" font-family="Arial" font-size="13px" font-weight="bold" text-decoration="none" x="1363.147705078125" y="57.5">polar: SailboatPolar</text></g></g><g transform="translate(-22,-22) scale(1,1)"><path fill="none" stroke="#000000" d="M 1425.5 80 L 1425.5 808" stroke-miterlimit="10" stroke-dasharray="3"/></g><g transform="translate(-22,-22) scale(1,1)"><path fill="#ffffff" stroke="none" d="M 960 336 L 1141 336 L 1151 346 L 1151 385 L 960 385 L 960 336"/></g><g transform="translate(-22,-22) scale(1,1)"><path fill="none" stroke="#000000" d="M 960 336 L 1141 336 L 1151 346 L 1151 385 L 960 385 L 960 336 L 960 336" stroke-miterlimit="10"/></g><g transform="translate(-22,-22) scale(1,1)"><path fill="none" stroke="#000000" d="M 1141 336 L 1141 346 L 1151 346 L 1141 336" stroke-miterlimit="10"/></g><g transform="translate(-22,-22) scale(1,1)"><g><path fill="none" stroke="none"/><text fill="#000000" stroke="none" font-family="Arial" font-size="13px" text-decoration="none" x="965" y="350">tack = f(curSpeed, maxSpeed,</text><text fill="#000000" stroke="none" font-family="Arial" font-size="13px" text-decoration="none" x="965" y="363">curDir, wantDir) → newDir,</text><text fill="#000000" stroke="none" font-family="Arial" font-size="13px" text-decoration="none" x="965" y="376">newSpeed</text></g></g><g transform="translate(-22,-22) scale(1,1)"><path fill="none" stroke="#000000" d="M 542 96 L 755 96" stroke-miterlimit="10"/></g><g transform="translate(-22,-22) scale(1,1)"><path fill="#000000" stroke="none" d="M 744.8373251423759 100.20951775601598 L 755 96 L 744.8373251423758 91.79048224398402"/></g><g transform="translate(-22,-22) scale(1,1)"><path fill="none" stroke="#000000" d="M 744.8373251423759 100.20951775601598 L 755 96 L 744.8373251423758 91.79048224398402 L 744.8373251423759 100.20951775601598" stroke-miterlimit="10"/></g><g transform="translate(-22,-22) scale(1,1)"><g><path fill="none" stroke="none"/><text fill="#000000" stroke="none" font-family="Arial" font-size="13px" text-decoration="none" x="605.63818359375" y="90.5">1 : moveBoat()</text></g></g><g transform="translate(-22,-22) scale(1,1)"><rect fill="#ffffff" stroke="none" x="755" y="96" width="13" height="632"/></g><g transform="translate(-22,-22) scale(1,1)"><path fill="none" stroke="#000000" d="M 755 96 L 768 96 L 768 728 L 755 728 L 755 96 Z Z" stroke-miterlimit="10"/></g><g transform="translate(-22,-22) scale(1,1)"><path fill="none" stroke="#000000" d="M 768 136 L 922 136" stroke-miterlimit="10"/></g><g transform="translate(-22,-22) scale(1,1)"><path fill="#000000" stroke="none" d="M 911.8373251423759 140.209517756016 L 922 136 L 911.8373251423758 131.790482243984"/></g><g transform="translate(-22,-22) scale(1,1)"><path fill="none" stroke="#000000" d="M 911.8373251423759 140.209517756016 L 922 136 L 911.8373251423758 131.790482243984 L 911.8373251423759 140.209517756016" stroke-miterlimit="10"/></g><g transform="translate(-22,-22) scale(1,1)"><g><path fill="none" stroke="none"/><text fill="#000000" stroke="none" font-family="Arial" font-size="13px" text-decoration="none" x="815.265869140625" y="130.5">2 : move()</text></g></g><g transform="translate(-22,-22) scale(1,1)"><rect fill="#ffffff" stroke="none" x="922" y="136" width="13" height="464"/></g><g transform="translate(-22,-22) scale(1,1)"><path fill="none" stroke="#000000" d="M 922 136 L 935 136 L 935 600 L 922 600 L 922 136 Z Z" stroke-miterlimit="10"/></g><g transform="translate(-22,-22) scale(1,1)"><path fill="none" stroke="#000000" d="M 935 159 L 1172 159" stroke-miterlimit="10"/></g><g transform="translate(-22,-22) scale(1,1)"><path fill="#000000" stroke="none" d="M 1161.837325142376 163.209517756016 L 1172 159 L 1161.837325142376 154.790482243984"/></g><g transform="translate(-22,-22) scale(1,1)"><path fill="none" stroke="#000000" d="M 1161.837325142376 163.209517756016 L 1172 159 L 1161.837325142376 154.790482243984 L 1161.837325142376 163.209517756016" stroke-miterlimit="10"/></g><g transform="translate(-22,-22) scale(1,1)"><g><path fill="none" stroke="none"/><text fill="#000000" stroke="none" font-family="Arial" font-size="13px" text-decoration="none" x="1018.26904296875" y="153.5">3 : move()</text></g></g><g transform="translate(-22,-22) scale(1,1)"><rect fill="#ffffff" stroke="none" x="1172" y="159" width="13" height="361"/></g><g transform="translate(-22,-22) scale(1,1)"><path fill="none" stroke="#000000" d="M 1172 159 L 1185 159 L 1185 520 L 1172 520 L 1172 159 Z Z" stroke-miterlimit="10"/></g><g transform="translate(-22,-22) scale(1,1)"><path fill="none" stroke="#000000" d="M 1185 176 L 1588 176" stroke-miterlimit="10"/></g><g transform="translate(-22,-22) scale(1,1)"><path fill="#000000" stroke="none" d="M 1577.837325142376 180.209517756016 L 1588 176 L 1577.837325142376 171.790482243984"/></g><g transform="translate(-22,-22) scale(1,1)"><path fill="none" stroke="#000000" d="M 1577.837325142376 180.209517756016 L 1588 176 L 1577.837325142376 171.790482243984 L 1577.837325142376 180.209517756016" stroke-miterlimit="10"/></g><g transform="translate(-22,-22) scale(1,1)"><g><path fill="none" stroke="none"/><text fill="#000000" stroke="none" font-family="Arial" font-size="13px" text-decoration="none" x="1317.812255859375" y="170.5">4 : getWindForce():float</text></g></g><g transform="translate(-22,-22) scale(1,1)"><rect fill="#ffffff" stroke="none" x="1588" y="176" width="13" height="32"/></g><g transform="translate(-22,-22) scale(1,1)"><path fill="none" stroke="#000000" d="M 1588 176 L 1601 176 L 1601 208 L 1588 208 L 1588 176 Z Z" stroke-miterlimit="10"/></g><g transform="translate(-22,-22) scale(1,1)"><path fill="none" stroke="#000000" d="M 1588 200 L 1185 200" stroke-miterlimit="10" stroke-dasharray="3"/></g><g transform="translate(-22,-22) scale(1,1)"><path fill="none" stroke="#000000" d="M 1195.162674857624 195.790482243984 L 1185 200 L 1195.162674857624 204.209517756016" stroke-miterlimit="10"/></g><g transform="translate(-22,-22) scale(1,1)"><g><path fill="none" stroke="none"/><text fill="#000000" stroke="none" font-family="Arial" font-size="13px" text-decoration="none" x="1349.552734375" y="197.5">5 : 9.33knot</text></g></g><g transform="translate(-22,-22) scale(1,1)"><path fill="none" stroke="#000000" d="M 1185 240 L 1588 240" stroke-miterlimit="10"/></g><g transform="translate(-22,-22) scale(1,1)"><path fill="#000000" stroke="none" d="M 1577.837325142376 244.209517756016 L 1588 240 L 1577.837325142376 235.790482243984"/></g><g transform="translate(-22,-22) scale(1,1)"><path fill="none" stroke="#000000" d="M 1577.837325142376 244.209517756016 L 1588 240 L 1577.837325142376 235.790482243984 L 1577.837325142376 244.209517756016" stroke-miterlimit="10"/></g><g transform="translate(-22,-22) scale(1,1)"><g><path fill="none" stroke="none"/><text fill="#000000" stroke="none" font-family="Arial" font-size="13px" text-decoration="none" x="1298.5" y="234.5">6 : getWindDirection():Point2D</text></g></g><g transform="translate(-22,-22) scale(1,1)"><rect fill="#ffffff" stroke="none" x="1588" y="240" width="13" height="28"/></g><g transform="translate(-22,-22) scale(1,1)"><path fill="none" stroke="#000000" d="M 1588 240 L 1601 240 L 1601 268 L 1588 268 L 1588 240 Z Z" stroke-miterlimit="10"/></g><g transform="translate(-22,-22) scale(1,1)"><path fill="none" stroke="#000000" d="M 1588 264 L 1185 264" stroke-miterlimit="10" stroke-dasharray="3"/></g><g transform="translate(-22,-22) scale(1,1)"><path fill="none" stroke="#000000" d="M 1195.162674857624 259.790482243984 L 1185 264 L 1195.162674857624 268.209517756016" stroke-miterlimit="10"/></g><g transform="translate(-22,-22) scale(1,1)"><g><path fill="none" stroke="none"/><text fill="#000000" stroke="none" font-family="Arial" font-size="13px" text-decoration="none" x="1364.66015625" y="257.5">7 : 36°</text></g></g><g transform="translate(-22,-22) scale(1,1)"><path fill="none" stroke="#000000" d="M 1185 288 L 1215 288 L 1215 308 L 1192 308" stroke-miterlimit="10"/></g><g transform="translate(-22,-22) scale(1,1)"><path fill="#000000" stroke="none" d="M 1202.162674857624 303.790482243984 L 1192 308 L 1202.162674857624 312.209517756016"/></g><g transform="translate(-22,-22) scale(1,1)"><path fill="none" stroke="#000000" d="M 1202.162674857624 303.790482243984 L 1192 308 L 1202.162674857624 312.209517756016 L 1202.162674857624 303.790482243984" stroke-miterlimit="10"/></g><g transform="translate(-22,-22) scale(1,1)"><g><path fill="none" stroke="none"/><text fill="#000000" stroke="none" font-family="Arial" font-size="13px" text-decoration="none" x="1231.5" y="301.5">8 : tack</text></g></g><g transform="translate(-22,-22) scale(1,1)"><rect fill="#ffffff" stroke="none" x="1179" y="308" width="13" height="60"/></g><g transform="translate(-22,-22) scale(1,1)"><path fill="none" stroke="#000000" d="M 1179 308 L 1192 308 L 1192 368 L 1179 368 L 1179 308 Z Z" stroke-miterlimit="10"/></g><g transform="translate(-22,-22) scale(1,1)"><path fill="none" stroke="#000000" d="M 1192 328 L 1418 328" stroke-miterlimit="10"/></g><g transform="translate(-22,-22) scale(1,1)"><path fill="#000000" stroke="none" d="M 1407.837325142376 332.209517756016 L 1418 328 L 1407.837325142376 323.790482243984"/></g><g transform="translate(-22,-22) scale(1,1)"><path fill="none" stroke="#000000" d="M 1407.837325142376 332.209517756016 L 1418 328 L 1407.837325142376 323.790482243984 L 1407.837325142376 332.209517756016" stroke-miterlimit="10"/></g><g transform="translate(-22,-22) scale(1,1)"><g><path fill="none" stroke="none"/><text fill="#000000" stroke="none" font-family="Arial" font-size="13px" text-decoration="none" x="1183.055908203125" y="348.5">9 : getMaxSpeed(angle, windForce):double</text></g></g><g transform="translate(-22,-22) scale(1,1)"><rect fill="#ffffff" stroke="none" x="1418" y="328" width="13" height="40"/></g><g transform="translate(-22,-22) scale(1,1)"><path fill="none" stroke="#000000" d="M 1418 328 L 1431 328 L 1431 368 L 1418 368 L 1418 328 Z Z" stroke-miterlimit="10"/></g><g transform="translate(-22,-22) scale(1,1)"><path fill="none" stroke="#000000" d="M 1418 360 L 1192 360" stroke-miterlimit="10" stroke-dasharray="3"/></g><g transform="translate(-22,-22) scale(1,1)"><path fill="none" stroke="#000000" d="M 1202.162674857624 355.790482243984 L 1192 360 L 1202.162674857624 364.209517756016" stroke-miterlimit="10"/></g><g transform="translate(-22,-22) scale(1,1)"><g><path fill="none" stroke="none"/><text fill="#000000" stroke="none" font-family="Arial" font-size="13px" text-decoration="none" x="1269.982666015625" y="374.5">10 : 7.4knot</text></g></g><g transform="translate(-22,-22) scale(1,1)"><path fill="none" stroke="#000000" d="M 1185 408 L 1215 408 L 1215 428 L 1192 428" stroke-miterlimit="10"/></g><g transform="translate(-22,-22) scale(1,1)"><path fill="#000000" stroke="none" d="M 1202.162674857624 423.790482243984 L 1192 428 L 1202.162674857624 432.209517756016"/></g><g transform="translate(-22,-22) scale(1,1)"><path fill="none" stroke="#000000" d="M 1202.162674857624 423.790482243984 L 1192 428 L 1202.162674857624 432.209517756016 L 1202.162674857624 423.790482243984" stroke-miterlimit="10"/></g><g transform="translate(-22,-22) scale(1,1)"><g><path fill="none" stroke="none"/><text fill="#000000" stroke="none" font-family="Arial" font-size="13px" text-decoration="none" x="1223.982421875" y="421.5">11 : stepForward</text></g></g><g transform="translate(-22,-22) scale(1,1)"><rect fill="#ffffff" stroke="none" x="1179" y="428" width="13" height="52"/></g><g transform="translate(-22,-22) scale(1,1)"><path fill="none" stroke="#000000" d="M 1179 428 L 1192 428 L 1192 480 L 1179 480 L 1179 428 Z Z" stroke-miterlimit="10"/></g><g transform="translate(-22,-22) scale(1,1)"><path fill="none" stroke="#000000" d="M 1192 448 L 1588 448" stroke-miterlimit="10"/></g><g transform="translate(-22,-22) scale(1,1)"><path fill="#000000" stroke="none" d="M 1577.837325142376 452.209517756016 L 1588 448 L 1577.837325142376 443.790482243984"/></g><g transform="translate(-22,-22) scale(1,1)"><path fill="none" stroke="#000000" d="M 1577.837325142376 452.209517756016 L 1588 448 L 1577.837325142376 443.790482243984 L 1577.837325142376 452.209517756016" stroke-miterlimit="10"/></g><g transform="translate(-22,-22) scale(1,1)"><g><path fill="none" stroke="none"/><text fill="#000000" stroke="none" font-family="Arial" font-size="13px" text-decoration="none" x="1227.34814453125" y="442.5">12 : isMovePossible(from: Point2D, to: Point2D):boolean</text></g></g><g transform="translate(-22,-22) scale(1,1)"><rect fill="#ffffff" stroke="none" x="1588" y="448" width="13" height="28"/></g><g transform="translate(-22,-22) scale(1,1)"><path fill="none" stroke="#000000" d="M 1588 448 L 1601 448 L 1601 476 L 1588 476 L 1588 448 Z Z" stroke-miterlimit="10"/></g><g transform="translate(-22,-22) scale(1,1)"><path fill="none" stroke="#000000" d="M 1588 472 L 1192 472" stroke-miterlimit="10" stroke-dasharray="3"/></g><g transform="translate(-22,-22) scale(1,1)"><path fill="none" stroke="#000000" d="M 1202.162674857624 467.790482243984 L 1192 472 L 1202.162674857624 476.209517756016" stroke-miterlimit="10"/></g><g transform="translate(-22,-22) scale(1,1)"><g><path fill="none" stroke="none"/><text fill="#000000" stroke="none" font-family="Arial" font-size="13px" text-decoration="none" x="1365.2890625" y="465.5">13 : true</text></g></g><g transform="translate(-22,-22) scale(1,1)"><path fill="none" stroke="#000000" d="M 1172 512 L 935 512" stroke-miterlimit="10" stroke-dasharray="3"/></g><g transform="translate(-22,-22) scale(1,1)"><path fill="none" stroke="#000000" d="M 945.1626748576241 507.790482243984 L 935 512 L 945.1626748576241 516.209517756016" stroke-miterlimit="10"/></g><g transform="translate(-22,-22) scale(1,1)"><g><path fill="none" stroke="none"/><text fill="#000000" stroke="none" font-family="Arial" font-size="13px" text-decoration="none" x="1022.67626953125" y="497.5">14 : null</text></g></g><g transform="translate(-22,-22) scale(1,1)"><path fill="none" stroke="#000000" d="M 935 536 L 965 536 L 965 556 L 942 556" stroke-miterlimit="10"/></g><g transform="translate(-22,-22) scale(1,1)"><path fill="#000000" stroke="none" d="M 952.1626748576241 551.790482243984 L 942 556 L 952.1626748576241 560.209517756016"/></g><g transform="translate(-22,-22) scale(1,1)"><path fill="none" stroke="#000000" d="M 952.1626748576241 551.790482243984 L 942 556 L 952.1626748576241 560.209517756016 L 952.1626748576241 551.790482243984" stroke-miterlimit="10"/></g><g transform="translate(-22,-22) scale(1,1)"><g><path fill="none" stroke="none"/><text fill="#000000" stroke="none" font-family="Arial" font-size="13px" text-decoration="none" x="941.62451171875" y="549.5">15 : notify()</text></g></g><g transform="translate(-22,-22) scale(1,1)"><rect fill="#ffffff" stroke="none" x="929" y="556" width="13" height="28"/></g><g transform="translate(-22,-22) scale(1,1)"><path fill="none" stroke="#000000" d="M 929 556 L 942 556 L 942 584 L 929 584 L 929 556 Z Z" stroke-miterlimit="10"/></g><g transform="translate(-22,-22) scale(1,1)"><path fill="none" stroke="#000000" d="M 929 568 L 333 568" stroke-miterlimit="10"/></g><g transform="translate(-22,-22) scale(1,1)"><path fill="none" stroke="#000000" d="M 343.16267485762415 563.790482243984 L 333 568 L 343.16267485762415 572.209517756016" stroke-miterlimit="10"/></g><g transform="translate(-22,-22) scale(1,1)"><g><path fill="none" stroke="none"/><text fill="#000000" stroke="none" font-family="Arial" font-size="13px" text-decoration="none" x="552.736328125" y="561.5">16 : update(playerBoat)</text></g></g><g transform="translate(-22,-22) scale(1,1)"><path fill="none" stroke="#000000" d="M 922 592 L 768 592" stroke-miterlimit="10" stroke-dasharray="3"/></g><g transform="translate(-22,-22) scale(1,1)"><path fill="none" stroke="#000000" d="M 778.1626748576241 587.790482243984 L 768 592 L 778.1626748576241 596.209517756016" stroke-miterlimit="10"/></g><g transform="translate(-22,-22) scale(1,1)"><g><path fill="none" stroke="none"/><text fill="#000000" stroke="none" font-family="Arial" font-size="13px" text-decoration="none" x="814.371337890625" y="585.5">17 : null</text></g></g><g transform="translate(-22,-22) scale(1,1)"><path fill="none" stroke="#000000" d="M 768 664 L 1588 664" stroke-miterlimit="10"/></g><g transform="translate(-22,-22) scale(1,1)"><path fill="#000000" stroke="none" d="M 1577.837325142376 668.209517756016 L 1588 664 L 1577.837325142376 659.790482243984"/></g><g transform="translate(-22,-22) scale(1,1)"><path fill="none" stroke="#000000" d="M 1577.837325142376 668.209517756016 L 1588 664 L 1577.837325142376 659.790482243984 L 1577.837325142376 668.209517756016" stroke-miterlimit="10"/></g><g transform="translate(-22,-22) scale(1,1)"><g><path fill="none" stroke="none"/><text fill="#000000" stroke="none" font-family="Arial" font-size="13px" text-decoration="none" x="1163.69970703125" y="657.5">18 : </text></g></g><g transform="translate(-22,-22) scale(1,1)"><rect fill="#ffffff" stroke="none" x="1588" y="664" width="13" height="44"/></g><g transform="translate(-22,-22) scale(1,1)"><path fill="none" stroke="#000000" d="M 1588 664 L 1601 664 L 1601 708 L 1588 708 L 1588 664 Z Z" stroke-miterlimit="10"/></g><g transform="translate(-22,-22) scale(1,1)"><path fill="none" stroke="#000000" d="M 1588 688 L 768 688" stroke-miterlimit="10" stroke-dasharray="3"/></g><g transform="translate(-22,-22) scale(1,1)"><path fill="none" stroke="#000000" d="M 778.1626748576241 683.790482243984 L 768 688 L 778.1626748576241 692.209517756016" stroke-miterlimit="10"/></g><g transform="translate(-22,-22) scale(1,1)"><g><path fill="none" stroke="none"/><text fill="#000000" stroke="none" font-family="Arial" font-size="13px" text-decoration="none" x="1150.759521484375" y="681.5">19 : false</text></g></g><g transform="translate(-22,-22) scale(1,1)"><path fill="none" stroke="#000000" d="M 755 720 L 542 720" stroke-miterlimit="10" stroke-dasharray="3"/></g><g transform="translate(-22,-22) scale(1,1)"><path fill="none" stroke="#000000" d="M 552.1626748576241 715.790482243984 L 542 720 L 552.1626748576241 724.209517756016" stroke-miterlimit="10"/></g><g transform="translate(-22,-22) scale(1,1)"><g><path fill="none" stroke="none"/><text fill="#000000" stroke="none" font-family="Arial" font-size="13px" text-decoration="none" x="624.5" y="734.5">20 : null</text></g></g><g transform="translate(-22,-22) scale(1,1)"><path fill="none" stroke="#000000" d="M 542 752 L 755 752" stroke-miterlimit="10"/></g><g transform="translate(-22,-22) scale(1,1)"><path fill="#000000" stroke="none" d="M 744.8373251423759 756.209517756016 L 755 752 L 744.8373251423758 747.790482243984"/></g><g transform="translate(-22,-22) scale(1,1)"><path fill="none" stroke="#000000" d="M 744.8373251423759 756.209517756016 L 755 752 L 744.8373251423758 747.790482243984 L 744.8373251423759 756.209517756016" stroke-miterlimit="10"/></g><g transform="translate(-22,-22) scale(1,1)"><g><path fill="none" stroke="none"/><text fill="#000000" stroke="none" font-family="Arial" font-size="13px" text-decoration="none" x="575.5" y="749.5">21 : isFinished():boolean</text></g></g><g transform="translate(-22,-22) scale(1,1)"><rect fill="#ffffff" stroke="none" x="755" y="752" width="13" height="28"/></g><g transform="translate(-22,-22) scale(1,1)"><path fill="none" stroke="#000000" d="M 755 752 L 768 752 L 768 780 L 755 780 L 755 752 Z Z" stroke-miterlimit="10"/></g><g transform="translate(-22,-22) scale(1,1)"><path fill="none" stroke="#000000" d="M 755 772 L 542 772" stroke-miterlimit="10" stroke-dasharray="3"/></g><g transform="translate(-22,-22) scale(1,1)"><path fill="none" stroke="#000000" d="M 552.1626748576241 767.790482243984 L 542 772 L 552.1626748576241 776.209517756016" stroke-miterlimit="10"/></g><g transform="translate(-22,-22) scale(1,1)"><g><path fill="none" stroke="none"/><text fill="#000000" stroke="none" font-family="Arial" font-size="13px" text-decoration="none" x="620.759521484375" y="786.5">22 : false</text></g></g></g></svg>